<svg xmlns="http://www.w3.org/2000/svg" version="1.1" xmlns:xlink="http://www.w3.org/1999/xlink" xmlns:svgjs="http://svgjs.dev/svgjs" viewBox="0 0 800 800"><defs><linearGradient x1="50%" y1="0%" x2="50%" y2="100%" id="wwwhirl-grad"><stop stop-color="gold" stop-opacity="1" offset="45%"></stop><stop stop-color="orange" stop-opacity="1" offset="100%"></stop></linearGradient></defs><g stroke-width="1" stroke="url(#wwwhirl-grad)" fill="none" stroke-linecap="round"><path d="M15.000001223882037 572.6578490852903C41.73611199502591 533.5897072209564 89.8611113830849 400.3369311375751 143.33333292537267 385.13076813648706C196.80555446766044 369.92460513539896 218.1944430845756 532.4200023747187 271.66666462686334 499.66826668006746C325.138886169151 466.9165309854162 346.5277747860662 240.55524914152653 399.9999963283539 227.92243680216103C453.47221787064177 215.28962446279556 474.86110648755687 412.8293788953921 528.3333280298446 439.03076745111315C581.8055495721323 465.2321560068341 603.1944381890476 337.31323402229623 656.6666597313352 353.6891018696219C710.138881273623 370.06496971694753 758.2638806616819 483.47955160813984 784.9999914328258 517.6349331182762 " transform="rotate(52.5, 400, 400)"></path><path d="M26.00000118891397 567.7247611433725C51.972223080882316 529.7728519037337 98.72222248642532 400.32729799416336 150.66666627036204 385.5555967931064C202.6111100542987 370.7838955920494 223.38888756787344 528.63656719596 275.3333313518101 496.82059537829883C327.27777513574677 465.0046235606376 348.05555264932144 245.1108069122876 399.9999964332581 232.83893206833255C451.9444402171948 220.56705722437752 472.72221773076944 412.4628186731856 524.6666615147062 437.91559612731464C576.6111052986429 463.3683735814436 597.3888828122176 339.10427793932104 649.3333265961543 355.01226384815163C701.2777703800909 370.92024975698223 748.0277697856338 481.0944150227119 773.9999916776022 514.2739284897016 " transform="rotate(51, 400, 400)"></path><path d="M37.00000115394592 562.7916884602436C62.20833416673872 525.9560118453 107.58333358976577 400.31768010954073 157.99999961535138 385.98044070851483C208.41666564093703 371.6432013074889 228.58333205117128 524.8531472759903 278.99999807675687 493.97293933531915C329.41666410234245 463.092731394648 349.58333051257665 249.66637994183773 399.9999965381623 237.75544259329314C450.4166625637479 225.84450524474852 470.58332897398213 412.0962737097682 520.9999949995677 436.80044006230514C571.4166610251533 461.5046064148421 591.5833274353877 340.8953371151349 641.9999934609733 356.3354410854705C692.4166594865588 371.7755450558061 737.7916589095857 478.70929369607313 762.9999919223786 510.91293911991596 " transform="rotate(49.5, 400, 400)"></path><path d="M48.00000111897786 557.8585852595365C72.44444525259513 522.1391412692883 116.44444469310622 400.30803170733986 165.33333296034073 386.40525410634507C214.22222122757523 372.5024765053503 233.77777653446913 521.0696968384425 282.66666480170363 491.1252527747614C331.55555306893814 461.1808087110803 351.1111083758319 254.22192245380973 399.9999966430665 242.67192260067557C448.88888491030104 231.12192274754142 468.4444402171948 411.7296982287726 517.3333284844293 435.6852534797175C566.2222167516638 459.6408087306624 585.7777720585577 342.6863657733706 634.6666603257922 357.6585878052112C683.5555485930267 372.63080983705174 727.5555480335378 476.3241418518562 751.999992167155 507.5519192325522 " transform="rotate(48, 400, 400)"></path><path d="M59.000001084009796 552.9255278351968C82.68055633845154 518.3223164696439 125.30555579644664 400.29842908150624 172.66666630533007 386.83011328054255C220.02777681421355 373.3617974795788 238.97222101776697 517.2862921772619 286.33333152665034 488.2776119905709C333.6944420355338 459.2689318038798 352.6388862390871 258.77751074214893 399.9999967479706 247.58844838442522C447.36110725685415 236.3993860267015 466.3055514604075 411.36316852414416 513.666661969291 434.5701126734971C561.0277724781743 457.77705682284994 579.9722166817278 344.47744020797353 627.3333271906113 358.9817803013191C674.6944376994946 373.4861203946646 717.3194371574897 473.9390357840065 740.9999924119314 504.1909451215557 " transform="rotate(46.5, 400, 400)"></path><path d="M70.00000104904174 547.992439893279C92.91666742430792 514.5054611524213 134.16666689978706 400.2887959380945 179.99999965031944 387.2549419371619C225.83333240085176 374.22108793622925 244.1666655010648 513.5028569985033 289.99999825159716 485.4299406888023C335.83333100212946 457.3570243791012 354.16666410234245 263.33306851291 399.99999685287486 252.50494365059674C445.8333296034072 241.67681878828347 464.16666270362015 410.9966083019376 509.99999545415244 433.4549413496985C555.8333282046849 455.9132743974594 574.1666613048978 346.26848412499834 619.9999940554303 360.3049422798489C665.8333268059625 374.3414004346994 707.0833262814416 471.55389919857856 729.9999926567078 500.8299404929811 " transform="rotate(45, 400, 400)"></path><path d="M81.00000101407369 543.059351951361C103.15277851016432 510.6886058351986 143.02777800312748 400.2791627946828 187.33333299530878 387.6797705937812C231.63888798749008 375.08037839287965 249.36110998436266 509.7194218197445 293.66666497654387 482.58226938703353C337.97221996872514 455.44511695432254 355.69444196559766 267.8886262836711 399.999996957779 257.42143891676824C444.3055519499603 246.95425154986543 462.0277739468328 410.6300480797311 506.3333289390141 432.33977002589995C550.6388839311953 454.04949197206884 568.3611059280679 348.0595280420231 612.6666609202492 361.62810425837864C656.9722159124304 375.19668047473414 696.8472154053936 469.16876261315065 718.9999929014842 497.4689358644065 " transform="rotate(43.5, 400, 400)"></path><path d="M92.00000097910562 538.1262792682321C113.38888959602073 506.871765776765 151.88888910646793 400.26954491006006 194.66666634029815 388.1046145091897C237.44444357412834 375.93968410831917 254.5555544676605 505.93600189977496 297.3333317014907 479.73461334405397C340.1111089353209 453.533224788333 357.22221982885293 272.44419931322125 399.9999970626832 262.3379494417288C442.7777742965134 252.23169957023646 459.88888519004547 410.2635031163137 502.66666242387566 431.22461396089045C545.4444396577059 452.1857248054673 562.5555505512381 349.85058721783696 605.3333277850683 362.95128149569746C648.1111050188985 376.05197577355796 686.6111045293455 466.78364128651185 707.9999931462606 494.10794649462093 " transform="rotate(42, 400, 400)"></path><path d="M103.00000094413757 533.1932065851033C123.62500068187714 503.05492571833145 160.75000020980835 400.2599270254374 201.9999996852875 388.52945842459803C243.24999916076663 376.7989898237587 259.74999895095834 502.1525819798053 300.9999984264374 476.88695730107435C342.2499979019166 451.6213326223434 358.7499976921082 276.9997723427714 399.99999716758737 267.2544599666894C441.2499966430665 257.5091475906074 457.7499964332581 409.8969581528962 498.9999959087372 430.109457895881C540.2499953842164 450.3219576388658 556.749995174408 351.64164639365083 597.9999946498872 364.27445873301633C639.2499941253662 376.90727107238183 676.3749936532975 464.39851995987306 696.999993391037 490.7469571248353 " transform="rotate(40.5, 400, 400)"></path><path d="M114.00000090916951 528.2601186431855C133.86111176773355 499.2380704011088 169.6111113131488 400.2502938820257 209.33333303027683 388.9542870812174C249.0555547474049 377.6582802804091 264.9444434342562 498.3691468010466 304.6666651513842 474.03928599930566C344.3888868685122 449.70942519756477 360.2777755553634 281.5553301135324 399.9999972724915 272.17095523286093C439.7222189896196 262.7865803521894 455.6111076764708 409.53039793068973 495.33332939359883 428.9942865720825C535.0555511107268 448.4581752134752 550.9444397975782 353.43269031067564 590.6666615147062 365.5976207115461C630.3888832318343 377.76255111241653 666.1388827772495 462.0133833744452 685.9999936358134 487.38595249626076 " transform="rotate(39, 400, 400)"></path><path d="M125.00000087420145 523.3270230718731C144.09722285358993 495.42120745449165 178.47222241648922 400.2406531092194 216.66666637526617 389.3791081084422C254.86111033404316 378.517563107665 270.13888791755403 494.58570399289334 308.33333187633093 471.1916070681425C346.5277758351079 447.7975101433916 361.80555341861873 286.110880254899 399.9999973773957 277.0874428696379C438.1944413361727 268.0640054843768 453.4722189196834 409.1638300790887 491.6666628784604 427.8791076188894C529.8611068372375 446.5943851586901 545.1388844207482 355.2237265983059 583.3333283795251 366.92077506068136C621.5277723383022 378.6178235230568 655.9027719012014 459.6282391596228 674.9999938805898 484.02494023829155 " transform="rotate(37.5, 400, 400)"></path><path d="M136.0000008392334 518.3939503887443C154.33333393944633 491.6043673960581 187.33333351982964 400.2310352245967 223.99999972025554 389.8039520238506C260.66666592068145 379.3768688231045 275.3333324008519 490.8022840729237 311.99999860127775 468.3439510251629C348.66666480170363 445.88561797740203 363.33333128187394 290.66645328444906 399.9999974822999 282.0039533945985C436.66666368272575 273.34145350474785 451.3333301628961 408.79728511567123 487.999996363322 426.7639515538799C524.6666625637479 444.7306179920886 539.3333290439183 357.0147857741198 575.9999952443442 368.2439522980002C612.66666144477 379.47311882188063 645.6666610251533 457.24311783298396 663.9999941253662 480.66395086850594 " transform="rotate(36, 400, 400)"></path><path d="M147.00000080426534 513.4608624468264C164.56944502530274 487.78751207883545 196.19444462317009 400.221402081185 231.33333306524491 390.22878068047C266.4722215073197 380.23615927975493 280.5277768841497 487.018848894165 315.66666532622446 465.4962797233942C350.8055537682993 443.9737105526234 364.86110914512915 295.22201105521015 399.999997587204 286.92044866077003C435.13888602927886 278.6188862663298 449.1944414061088 408.4307248934647 484.3333298481836 425.64878023008134C519.4722182902584 442.866835566698 533.5277736670885 358.8058296911446 568.6666621091631 369.56711427653C603.805550551238 380.3283988619154 635.4305501491053 454.85798124755604 652.9999943701428 477.3029462399313 " transform="rotate(34.5, 400, 400)"></path><path d="M158.0000007692973 508.52778976369746C174.80555611115915 483.9706720204019 205.0555557265105 400.2117841965623 238.66666641023426 390.65362459587834C272.277777093958 381.09546499519445 285.7222213674475 483.2354289741953 319.3333320511712 462.64862368041463C352.94444273489495 442.06181838663383 366.3888870083845 299.7775840847603 399.9999976921082 291.83695918573056C433.611108375832 283.89633428670084 447.05555264932144 408.0641799300472 480.66666333304516 424.5336241650719C514.277774016769 441.00306840009654 527.7222182902585 360.5968888669584 561.3333289739821 370.8902915138488C594.944439657706 381.18369416073915 625.1944392730572 452.47285992091724 641.9999946149192 473.94195687014576 " transform="rotate(33, 400, 400)"></path><path d="M169.0000007343292 503.59470945117414C185.04166719701556 480.1538243325738 213.91666682985095 400.2021586825451 245.9999997552236 391.0784608818922C278.08333268059624 381.9547630812394 290.91666585074535 479.4520014248312 322.999998776118 459.8009600080405C355.08333170149064 440.14991859124973 367.9166648716397 304.3331494849159 399.9999977970124 296.7534620812966C432.0833307223851 289.17377467767733 444.91666389253413 407.69762733723525 476.9999968179067 423.41846047066787C509.0833297432794 439.1392936041005 521.9166629134286 362.38794041337775 553.9999958388012 372.2134611217731C586.0833287641738 382.0389818301685 614.9583283970092 450.0877309648839 630.9999948596956 470.58095987096567 " transform="rotate(31.5, 400, 400)"></path><path d="M180.00000069936118 498.66162913865077C195.27777828287196 476.3369766447457 222.77777793319137 400.19253316852786 253.33333310021294 391.5032971679061C283.8888882672345 382.81406116728436 296.1111103340432 475.668573875467 326.66666550106476 456.9532963356663C357.2222206680863 438.2380187958656 369.44444273489495 308.8887148850715 399.9999979019166 301.6699649768627C430.55555306893814 294.4512150686538 442.77777513574677 407.3310747444233 473.33333030276833 422.30329677626383C503.8888854697899 437.27551880810444 516.1111075365986 364.17899195979703 546.6666627036202 373.53663072969744C577.2222178706418 382.8942694995978 604.7222175209611 447.7026020088506 619.999995104472 467.2199628717856 " transform="rotate(30, 400, 400)"></path><path d="M191.0000006643931 493.72854119673286C205.51388936872834 472.52012132752304 231.6388890365318 400.1829000251161 260.6666664452023 391.92812582452547C289.6944438538728 383.67335162393476 301.30555481734103 471.8851386967083 330.3333322260115 454.1056250338977C359.361109634682 436.326111371087 370.9722205981502 313.4442726558326 399.9999980068207 306.5864602430342C429.02777541549125 299.7286478302358 440.63888637895946 406.96451452221675 469.66666378762994 421.18812545246533C498.69444119630043 435.41173638271385 510.30555215976864 365.97003587682184 539.3333295684391 374.8597927082272C568.3611069771096 383.74954953963254 594.4861066449131 445.3174654234227 608.9999953492484 463.85895824321096 " transform="rotate(28.5, 400, 400)"></path><path d="M202.00000062942505 488.79546088420955C215.75000045458475 468.70327363969494 240.50000013987224 400.1732745110989 267.9999997901916 392.35296211053935C295.4999994405111 384.53264970997975 306.4999993006389 468.1017111473442 333.9999989509583 451.25796136152354C361.4999986012777 434.4142115757029 372.4999984614054 317.9998380559882 399.99999811172495 311.5029631386002C427.49999776204436 305.0060882212123 438.4999976221721 406.5979619294048 465.9999972724915 420.0729617580613C493.4999969228109 433.5479615867178 504.49999678293875 367.7610874232412 531.999996433258 376.1829623161515C559.4999960835776 384.6048372090618 584.2499957688649 442.9323364673893 597.9999955940248 460.4979612440309 " transform="rotate(27, 400, 400)"></path><path d="M213.000000594457 483.86238057168623C225.98611154044116 464.88642595186684 249.36111124321266 400.1636489970817 275.333333135181 392.7777983965532C301.30555502714935 385.39194779602474 311.6944437839367 464.31828359798 337.66666567590505 448.4102976891494C363.6388875678734 432.5023117803188 374.02777632466075 322.55540345614384 399.999998216629 316.41946603416625C425.9722201085974 310.2835286121888 436.3611088653847 406.23140933659283 462.3333307573531 418.9577980636573C488.30555264932144 431.6841867907218 498.6944414061088 369.5521389696605 524.6666632980771 377.5061319240758C550.6388851900455 385.4601248784911 574.0138848928169 440.54720751135596 586.9999958388012 457.1369642448508 " transform="rotate(25.5, 400, 400)"></path><path d="M224.0000005594889 478.92929262976827C236.22222262629757 461.06957063464415 258.2222223465531 400.15401585366993 282.66666648017036 393.20262705317253C307.1111106137876 386.25123825267514 316.88888826723456 460.53484841922125 341.3333324008518 445.5626263873807C365.77777653446907 430.59040435554016 375.55555418791596 327.11096122690486 399.9999983215332 321.3359613003378C424.4444424551505 315.56096137377074 434.2222201085974 405.8648491143863 458.66666424221467 417.84262673985876C483.1111083758319 429.8204043653312 492.88888602927886 371.3431828866853 517.3333301628961 378.8292939026056C541.7777742965134 386.31540491852587 563.777774016769 438.1620709259281 575.9999960835776 453.7759596162761 " transform="rotate(24, 400, 400)"></path><path d="M235.00000052452089 473.9962199466395C246.45833371215394 457.25273057621064 267.08333344989353 400.14439796904725 289.9999998251597 393.62747096858095C312.9166662004259 387.1105439681146 322.0833327505324 456.75142849925163 344.9999991257986 442.71497034440114C367.9166655010647 428.6785121895506 377.0833320511712 331.666534256455 399.9999984264374 326.25247182529836C422.91666480170363 320.83840939414176 432.0833313518101 405.4983041509688 454.9999977270762 416.72747067484926C477.91666410234245 427.9566371987297 487.0833306524489 373.1342420624992 509.99999702771515 380.15247113992444C532.9166634029813 387.1707002173497 553.5416631407209 435.7769495992893 564.999996328354 450.41497024649055 " transform="rotate(22.5, 400, 400)"></path><path d="M246.0000004895528 469.0631320047215C256.69444479801035 453.43587525898795 275.94444455323395 400.1347648256355 297.3333331701491 394.0522996252003C318.7222217870642 387.96983442476505 327.27777723383025 452.96799332049295 348.66666585074535 439.86729904263245C370.05555446766044 426.76660476477196 378.6111099144265 336.22209202721604 399.9999985313416 331.1689670914699C421.3888871482567 326.1158421557237 429.94444259502274 405.1317439287623 451.33333121193783 415.6122993510507C472.72221982885293 426.0928547733391 481.27777527561904 374.92528597952395 502.66666389253413 381.4756331184542C524.0555525094492 388.02598025738445 543.3055522646728 433.3918130138614 553.9999965731304 447.05396561791594 " transform="rotate(21, 400, 400)"></path><path d="M257.0000004545848 464.13005932159274C266.93055588386676 449.61903520055444 284.80555565657437 400.1251469410129 304.66666651513844 394.4771435406087C324.52777737370246 388.8291401402046 332.4722217171281 449.1845734005233 352.3333325756921 437.01964299965283C372.1944434342561 424.8547125987824 380.1388877776817 340.7776650567662 399.9999986362458 336.08547761643047C419.8611094948098 331.39329017609475 427.80555383823537 404.7651989653449 447.66666469679944 414.49714328604125C467.5277755553634 424.2290876067376 475.4722198987891 376.7163451553378 495.3333307573531 382.79881035577307C515.1944416159172 388.88127555620827 533.0694413886247 431.0066916872226 542.9999968179068 443.6929762481304 " transform="rotate(19.5, 400, 400)"></path><path d="M268.0000004196167 459.19697519437216C277.16666696972317 445.802183698029 293.66666675991485 400.1155176122984 311.9999998601278 394.9019760119253C330.3333329603407 389.68843441155224 337.66666620042594 445.40114203646186 355.9999993006389 434.1719755125814C374.3333324008518 422.942808988701 381.66666564093697 345.33322664222453 399.99999874114997 341.00197669729926C418.3333318413629 336.6707267523739 425.66666508144806 404.3986425578356 443.999998181661 413.38197577693995C462.33333128187394 422.3653089960443 469.66666452195915 378.5073928870599 487.9999976221721 384.1219761490001C506.333330722385 389.73655941094034 522.8333305125766 428.62155891649195 531.9999970626832 440.33197543425297 " transform="rotate(18, 400, 400)"></path><path d="M279.0000003846486 454.2638948818487C287.4027780555796 441.98533601020097 302.52777786325527 400.1058920982812 319.3333332051171 395.32681229793917C336.138888546979 390.5477324975972 342.8611106837237 441.61771448709766 359.66666602558564 431.3243118402073C376.47222136744745 421.0309091933169 383.19444350419224 349.88879204238015 399.9999988460541 345.9184795928653C416.80555418791596 341.9481671433504 423.52777632466075 404.0320899650236 440.33333166652255 412.2668120825359C457.1388870083845 420.50153420004824 463.86110914512926 380.2984444334792 480.66666448699107 385.4451457569244C497.472219828853 390.5918470803696 512.5972196365286 426.2364299604586 520.9999973074596 436.9709784350729 " transform="rotate(16.5, 400, 400)"></path><path d="M290.0000003496806 449.3308145693254C297.638889141436 438.1684883223728 311.3888889665957 400.09626658426396 326.66666655010647 395.75164858395306C341.94444413361725 391.40703058364215 348.05555516702157 437.8342869377335 363.33333275053235 428.47664816783316C378.61111033404313 419.1190093979328 384.72222136744745 354.44435744253576 399.9999989509583 350.83498248843136C415.27777653446907 347.2256075343269 421.3888875678734 403.66553737221165 436.66666515138417 411.1516483881319C451.94444273489495 418.6377594040522 458.0555537682993 382.0894959798985 473.3333313518101 386.7683153648487C488.6111089353209 391.4471347497989 502.36110876048053 423.8513010044253 509.999997552236 433.6099814358928 " transform="rotate(15, 400, 400)"></path><path d="M301.0000003147125 444.39773425680204C307.8750002272924 434.35164063454476 320.2500000699361 400.08664107024674 333.9999998950958 396.17648486996694C347.7499997202556 392.26632866968714 353.2499996503194 434.05085938836936 366.99999947547917 425.628984495459C380.7499993006388 417.2071096025487 386.2499992307027 358.9999228426914 399.9999990558625 355.7514853839974C413.7499988810222 352.5030479253034 419.249998811086 403.2989847793997 432.9999986362458 410.0364846937279C446.7499984614054 416.77398460805614 452.2499983914694 383.88054752631786 465.999998216629 388.091484972773C479.7499980417888 392.30242241922815 492.12499788443245 421.4661720483919 498.9999977970124 430.2489844367127 " transform="rotate(13.5, 400, 400)"></path><path d="M312.0000002797445 439.4646501295814C318.1111113131488 430.53478913201934 329.1111111732765 400.07701174153226 341.33333324008515 396.60131734128356C353.5555553068938 393.12562294103486 358.44444413361725 430.2674280243079 370.6666662004259 422.78131700838765C382.8888882672345 415.29520599246734 387.777777093958 363.5554844281497 399.9999991607666 360.66798446486615C412.22222122757523 357.78048450158263 417.1111100542987 402.9324283718904 429.33333212110733 408.9213171846267C441.55555418791596 414.9102059973629 446.44444301463943 385.67159525803993 458.66666508144806 389.414650766C470.8888871482567 393.15770627396023 481.8888870083845 419.0810392776613 487.9999980417888 426.88798362283535 " transform="rotate(12, 400, 400)"></path><path d="M323.0000002447764 434.531569817058C328.3472223990052 426.71794144419124 337.972222276617 400.06738622751504 348.66666658507455 397.0261536272974C359.3611108935321 393.9849210270798 363.6388886169151 426.48400047494374 374.3333329253727 419.9336533360135C385.0277772338302 413.38330619708324 389.30555495721325 368.11104982830534 399.9999992656708 365.5844873604322C410.69444357412834 363.0579248925591 414.9722212975114 402.5658757790784 425.6666656059689 407.80615349022264C436.3611099144265 413.04643120136683 440.6388876378095 387.46264680445927 451.3333319462671 390.73782037392436C462.0277762547246 394.01299394338946 471.6527761323364 416.69591032162793 476.9999982865652 423.52698662365526 " transform="rotate(10.5, 400, 400)"></path><path d="M334.0000002098084 429.5984895045347C338.58333348486156 422.90109375636314 346.8333333799574 400.0577607134978 355.9999999300639 397.4509899133113C365.16666648017036 394.8442191131247 368.83333310021294 422.70057292557954 377.9999996503194 417.08598966363934C387.1666662004259 411.47140640169914 390.8333328204685 372.6666152284609 399.999999370575 370.50099025599826C409.16666592068145 368.33536528353557 412.83333254072403 402.19932318626644 421.9999990908305 406.6909897958186C431.16666564093697 411.1826564053708 434.83333226097955 389.2536983508786 443.999998811086 392.0609899818487C453.1666653611925 394.8682816128188 461.4166652562883 414.3107813655946 465.9999985313416 420.1659896244751 " transform="rotate(9, 400, 400)"></path><path d="M345.00000398953756 424.6654053773141C348.8194483854153 419.0842422538378 355.6944482979951 400.04813138478335 363.3333370897505 397.8758223846279C370.9722258815059 395.70351338447244 374.02778139820805 418.9171415615181 381.66667018996344 414.238322176568C389.30555898171883 409.5595027916178 392.361114498421 377.22217681391925 400.00000329017644 375.417489336867C407.6388920819318 373.6128018598148 410.69444759863393 401.8327667787572 418.3333363903894 405.5758222867173C425.9722251821447 409.31887779467746 429.0277806988469 391.0447460826006 436.6666694906023 393.3841557750757C444.3055582823577 395.7235654675508 451.18055819493753 411.925648594864 455.00000259081526 416.80498881059776 " transform="rotate(7.5, 400, 400)"></path><path d="M356.0000039545695 419.7323250647907C359.05555947127164 415.26739456600967 364.55555940133553 400.03850587076613 370.66667043473984 398.3006586706418C376.7777814681442 396.56281147051743 379.2222258815059 415.133714012154 385.3333369149102 411.3906585041938C391.4444479483145 407.6476029962337 393.88889236167626 381.77774221407486 400.00000339508057 380.33399223243305C406.1111144284849 378.8902422507913 408.5555588418466 401.4662141859452 414.66666987525093 404.4606585923133C420.77778090865525 407.45510299868147 423.222225322017 392.83579762901996 429.3333363554213 394.707325383C435.4444473888256 396.5788531369801 440.9444473188895 409.5405196388307 444.00000283559166 413.4439918114177 " transform="rotate(6, 400, 400)"></path><path d="M367.00000391960145 414.79924093757006C369.29167055712804 411.4505430634843 373.41667050467595 400.02887654205165 378.00000377972924 398.7254911419584C382.5833370547824 397.42210574186515 384.41667036480374 411.3502826480925 389.00000363985697 408.5429910171224C393.5833369149102 405.7356993861523 395.4166702249315 386.33330379953316 400.00000349998476 385.25049131330184C404.583336775038 384.1676788270705 406.4166700850593 401.0996577784359 411.0000033601125 403.34549108321204C415.5833366351658 405.59132438798815 417.41666994518704 394.626845360742 422.0000032202403 396.0304911762271C426.5833364952935 397.43413699171214 430.7083364428414 407.15538686810004 433.00000308036806 410.08299099754026 " transform="rotate(4.5, 400, 400)"></path><path d="M378.0000038846334 409.86616062504675C379.52778164298445 407.6336953756562 382.2777816080164 400.01925102803443 385.3333371247186 399.15032742797223C388.38889264142074 398.2814038279101 389.6111148481016 407.56685509872835 392.66667036480374 405.6953273447483C395.7222258815059 403.8237995907682 396.94444808818673 390.88886919968877 400.0000036048889 390.1669942088679C403.05555912159105 389.445119218047 404.27778132827194 400.73310518562397 407.3333368449741 402.23032738880806C410.38889236167626 403.7275495919921 411.61111456835715 396.4178969071613 414.6666700850593 397.3536607841514C417.72222560176147 398.2894246611414 420.4722255667934 404.77025791206665 422.00000332514446 406.7219939983602 " transform="rotate(3, 400, 400)"></path><path d="M389.0000038496653 404.9330803125234C389.76389272884086 403.8168476878281 391.13889271135685 400.0096255140172 392.6666704697079 399.5751637139861C394.194448228059 399.140701913955 394.8055593313994 403.7834275493642 396.3333370897505 402.8476636723741C397.8611148481016 401.9118997953841 398.472225951442 395.4444345998444 400.0000037097931 395.08349710443395C401.52778146814416 394.7225596090235 402.1388925714846 400.366552592812 403.6666703298357 401.11516369440403C405.19444808818673 401.86377479599605 405.8055591915272 398.20894845358066 407.3333369498783 398.67683039207566C408.86111470822937 399.1447123305707 410.23611469074535 402.3851289560333 411.00000356992086 403.3609969991801 " transform="rotate(1.5, 400, 400)"></path></g></svg>