<svg xmlns="http://www.w3.org/2000/svg" version="1.1" xmlns:xlink="http://www.w3.org/1999/xlink" xmlns:svgjs="http://svgjs.dev/svgjs" viewBox="0 0 800 800"><defs><linearGradient x1="50%" y1="0%" x2="50%" y2="100%" id="ccchaos-grad"><stop stop-color="#A97113" stop-opacity="1" offset="0%"></stop><stop stop-color="orange" stop-opacity="1" offset="100%"></stop></linearGradient></defs><g stroke-width="1" stroke="url(#ccchaos-grad)" fill="none" stroke-linecap="round"><path d="M379.54 59.25C385.15 61 390.78 62.84 396.43 64.73 402.08 66.5 407.75 68.27 413.45 70 424.89 72.9 436.51 75.5 448.36 77.76 460.39 79.11 472.79 80.21 485.64 81.16 498.8 81.55 512.52 82.14 526.79 83.1 541.36 84.08 556.39 85.81 571.7 88.41 586.9 91.52 601.92 95.73 616.31 101.04 629.71 107.06 641.7 114.2 651.72 122.33 659.79 131.09 665.29 140.7 668 151 668.72 161.66 667.07 172.79 663.6 184.27 659.94 195.82 656.25 207.55 653.65 219.34 653.85 231.02 657.08 242.69 663.99 254.33 675.02 265.75 689.47 277.14 706.42 288.5 724.6 299.66 742.12 310.84 757 322.08 767.88 333.16 773.13 344.38 772.03 355.75 765.51 367.04 754.01 378.55 739.39 390.31 731.95 396.18 724.66 402.11 717.83 408.12 711.95 414.13 707.1 420.21 703.51 426.37 701.52 432.52 701.05 438.68 702.09 444.84 704.72 450.99 708.65 457.15 713.66 463.29 726.53 475.56 740.48 487.77 753.09 499.82 762.99 511.79 767.77 523.52 766.67 534.88 760.17 546.04 748.42 556.69 732.85 566.67 715.23 576.28 697.09 585.05 680.03 592.85 665.42 600.12 653.93 606.3 645.86 611.29 642.27 620.72 647.63 627.23 644.36 629.54 639.78 632.54 632.9 636.61 623.99 642.04 613.61 649.43 601.74 658.47 588.8 669.17 575.13 681.61 560.96 695.26 546.64 709.66 532.16 724.47 517.84 738.84 503.84 751.99 489.95 763.57 476.44 772.58 463.36 778.41 450.41 781.22 437.84 780.32 425.64 775.73 419.56 772.4 413.56 768.29 407.65 763.48 401.74 758.25 395.9 752.51 390.14 746.38 384.37 740.16 378.75 733.86 373.25 727.61 367.75 721.64 362.38 715.94 357.14 710.61 346.63 701.71 336.61 695.11 327.08 691.07 317.48 690.1 308.33 691.48 299.6 694.76 290.72 700.06 282.16 706.06 273.86 712.06 265.27 718.15 256.78 722.99 248.3 726.07 239.35 727.72 230.27 726.99 221 723.82 211.17 718.74 201.14 711.32 190.93 701.87 180.36 690.94 169.83 678.52 159.5 665.02 149.28 650.84 139.63 636.17 130.75 621.34 122.49 606.53 115.26 591.93 109.15 577.71 103.74 563.88 99.35 550.55 95.88 537.72 92.62 525.37 89.85 513.45 87.37 501.91 84.44 490.74 81.44 479.8 78.31 469.01 74.52 458.43 70.67 447.86 66.94 437.24 63.01 426.71 59.61 416.03 57.02 405.17 55.45 397.01 53.97 380.43 54.12 372.01 54.8 363.56 57.66 346.77 59.67 338.44 62.49 327.37 65.69 316.45 69.04 305.76 71.83 295.15 74.53 284.82 77.12 274.86 79.12 265.04 81.23 255.64 83.64 246.75 86.04 238.03 89.19 229.85 93.25 222.26 97.91 214.83 103.72 207.96 110.64 201.67 118.24 195.41 126.77 189.63 136.01 184.26 145.48 178.72 155.26 173.42 165.16 168.28 174.71 162.69 184.1 157.05 193.25 151.29 201.77 144.87 210.05 138.2 218.13 131.27 225.67 123.68 233.18 115.89 240.79 108 248.09 99.73 255.66 91.62 263.59 83.88 271.43 76.3 279.74 69.46 288.51 63.59 297.3 58.4 306.58 54.48 316.31 51.94 326.08 50.32 336.27 50.09 346.82 51.21 354.79 52.56 371.15 56.66 379.53 59.25" stroke-dasharray="0 0" transform="rotate(0, 400, 400)" opacity="1.00"></path><path d="M383.37 68.29C394.41 71.76 405.64 75.45 417.07 79.11 428.56 82.06 440.33 84.73 452.41 87.06 464.65 88.5 477.3 89.68 490.39 90.69 503.71 91.1 517.51 91.66 531.7 92.53 546.01 93.35 560.54 94.84 575.06 97.13 589.22 99.85 602.87 103.59 615.57 108.39 627.11 113.84 637.03 120.39 644.88 127.92 650.89 136.09 654.48 145.13 655.6 154.9 655.19 165.08 652.97 175.81 649.54 186.93 646.51 198.21 644 209.72 643.02 221.37 645.03 232.97 650.09 244.61 658.63 256.25 670.84 267.74 685.92 279.2 702.87 290.64 720.43 301.91 736.84 313.18 750.31 324.48 759.72 335.65 763.69 346.91 761.68 358.27 754.74 369.55 743.32 381 729.17 392.63 715.28 404.23 703.18 416.04 694.97 428.06 692.65 440.07 695.95 452.02 704.06 463.84 716.15 475.65 729.46 487.3 741.79 498.7 751.88 510.02 757.4 521 757.52 531.54 752.57 541.87 742.49 551.63 728.42 560.68 711.96 569.37 694.42 577.22 677.32 584.12 662.02 590.55 649.29 595.96 639.58 600.3 630.98 608.88 634.25 616.69 632.66 620.24 629.72 624.15 624.68 629.16 617.7 635.52 609.32 643.7 599.34 653.4 588.1 664.56 576 677.22 563.16 690.84 549.9 704.97 536.32 719.29 522.68 732.99 509.16 745.36 495.63 756.11 482.37 764.33 469.46 769.47 456.62 771.76 444.12 770.54 432 765.86 419.94 758.72 408.19 748.98 396.79 737.34 385.38 725.37 374.53 713.52 364.22 702.66 353.86 693.83 343.99 687.11 334.58 682.75 325.08 681.28 315.98 682.03 307.23 684.64 298.29 689.25 289.59 694.67 281.06 700.26 272.2 706.13 263.37 710.99 254.49 714.37 245.13 716.58 235.62 716.65 225.92 714.48 215.75 710.56 205.42 704.41 195.01 696.26 184.38 686.63 173.9 675.44 163.75 663.05 153.86 649.86 144.63 636.01 136.26 621.81 128.56 607.47 121.91 593.17 116.37 579.08 111.49 565.26 107.55 551.81 104.45 538.8 101.47 526.17 98.88 513.94 96.49 502.1 93.59 490.59 90.56 479.34 87.36 468.31 83.48 457.49 79.53 446.75 75.69 436.04 71.67 425.44 68.2 414.77 65.55 404.03 63.39 393.31 62.4 382.47 62.66 371.5 63.6 360.54 65.61 349.72 68.47 339.08 71.4 328.46 74.71 318.05 78.15 307.92 81.03 297.85 83.78 288.11 86.37 278.76 88.33 269.52 90.33 260.72 92.55 252.42 94.69 244.25 97.49 236.6 101.14 229.5 105.34 222.49 110.65 215.99 117.07 210 124.21 203.98 132.33 198.35 141.25 193.05 150.52 187.51 160.22 182.14 170.16 176.86 179.88 171.08 189.54 165.22 199.01 159.2 207.95 152.54 216.63 145.63 225.1 138.48 233 130.73 240.81 122.82 248.61 114.86 256.03 106.61 263.63 98.58 271.47 90.96 279.14 83.57 287.18 76.95 295.64 71.31 304.04 66.38 312.91 62.7 322.24 60.38 331.55 58.95 341.32 58.87 351.52 60.11 361.71 61.92 372.33 64.72 383.36 68.29" stroke-dasharray="0 0" transform="rotate(3.4324324324324325, 400, 400)" opacity="0.97"></path><path d="M388.8 77.33C399.68 80.82 410.84 84.52 422.27 88.21 433.76 91.21 445.58 93.94 457.75 96.35 470.05 97.88 482.75 99.14 495.82 100.21 509.03 100.67 522.57 101.23 536.34 102.04 550.04 102.73 563.72 104.01 577.11 106.01 589.94 108.36 601.98 111.67 612.84 115.97 622.46 120.87 630.35 126.83 636.19 133.76 640.38 141.32 642.41 149.75 642.35 158.95 641.26 168.6 638.9 178.84 635.92 189.54 633.82 200.46 632.71 211.67 633.46 223.08 637.23 234.51 644 246.04 653.97 257.59 667.11 269.06 682.56 280.52 699.27 291.96 716.05 303.27 731.25 314.59 743.29 325.9 751.28 337.11 754.05 348.36 751.23 359.67 743.95 370.92 732.64 382.28 718.98 393.74 705.73 405.18 694.25 416.76 686.42 428.46 684.11 440.16 687.05 451.71 694.52 463.05 705.83 474.37 718.49 485.44 730.48 496.19 740.67 506.85 746.82 517.11 748.04 526.85 744.56 536.39 736.1 545.31 723.59 553.5 708.42 561.38 691.7 568.41 674.85 574.53 659.15 580.28 645.47 585.08 634.37 588.93 620.73 597.17 620.45 606.83 619.88 611.66 618.17 616.46 614.66 622.36 609.37 629.57 602.85 638.44 594.7 648.68 585.19 660.18 574.78 672.95 563.43 686.44 551.44 700.22 539.02 713.99 526.3 726.99 513.52 738.57 500.63 748.5 487.84 755.95 475.28 760.44 462.74 762.24 450.48 760.74 438.54 755.99 426.63 748.98 415.02 739.53 403.74 728.29 392.46 716.76 381.71 705.3 371.49 694.7 361.21 685.97 351.39 679.16 341.99 674.52 332.47 672.57 323.29 672.73 314.39 674.69 305.28 678.62 296.33 683.44 287.47 688.57 278.28 694.14 269.05 698.94 259.73 702.51 249.98 705.15 240.08 705.9 230.01 704.61 219.59 701.76 209.08 696.8 198.59 689.89 188.03 681.55 177.74 671.6 167.9 660.37 158.44 648.27 149.72 635.35 141.94 621.92 134.85 608.21 128.81 594.37 123.84 580.61 119.47 566.96 115.97 553.57 113.19 540.52 110.44 527.76 107.99 515.36 105.65 503.32 102.74 491.57 99.65 480.1 96.35 468.88 92.37 457.85 88.32 446.97 84.37 436.2 80.28 425.53 76.75 414.89 74.06 404.25 71.9 393.64 70.91 382.98 71.21 372.3 72.2 361.62 74.29 351.16 77.23 340.94 80.27 330.73 83.69 320.79 87.22 311.18 90.19 301.61 93.01 292.4 95.63 283.6 97.58 274.88 99.51 266.61 101.58 258.83 103.48 251.12 105.97 243.91 109.22 237.21 112.95 230.54 117.75 224.32 123.64 218.54 130.26 212.66 137.9 207.09 146.42 201.79 155.38 196.19 164.9 190.69 174.76 185.21 184.56 179.23 194.39 173.12 204.13 166.84 213.43 159.93 222.51 152.8 231.38 145.45 239.71 137.56 247.89 129.56 256 121.58 263.68 113.38 271.44 105.45 279.36 98 287.04 90.81 295 84.43 303.31 79.05 311.51 74.38 320.13 70.94 329.19 68.85 338.19 67.61 347.66 67.68 357.6 69.02 367.51 70.91 377.9 73.74 388.79 77.33" stroke-dasharray="0 0" transform="rotate(6.864864864864865, 400, 400)" opacity="0.95"></path><path d="M395.29 86.37C406.04 89.87 417.11 93.58 428.47 97.29 439.88 100.33 451.64 103.13 463.74 105.61 475.91 107.24 488.42 108.59 501.21 109.74 514.03 110.26 527.02 110.83 540.04 111.6 552.85 112.19 565.39 113.3 577.39 115.05 588.7 117.07 599.01 119.97 607.99 123.8 615.74 128.17 621.76 133.55 625.83 139.88 628.54 146.8 629.4 154.62 628.59 163.21 627.25 172.28 625.15 181.98 622.97 192.19 622.06 202.67 622.49 213.5 624.98 224.58 630.45 235.75 638.75 247.06 649.91 258.45 663.72 269.8 679.29 281.18 695.56 292.54 711.41 303.83 725.33 315.11 735.94 326.37 742.57 337.56 744.21 348.76 740.67 359.98 733.12 371.15 721.99 382.37 708.82 393.63 696.21 404.89 685.33 416.2 677.88 427.56 675.58 438.92 678.17 450.05 685.02 460.9 695.58 471.72 707.57 482.22 719.17 492.33 729.38 502.35 736.04 511.9 738.24 520.9 736.13 529.71 729.25 537.87 718.32 545.29 704.55 552.45 688.82 558.8 672.47 564.28 656.69 569.49 642.36 573.85 630.13 577.39 617.07 582.17 606.19 589.35 605.67 592.8 606.66 597.69 604.34 612.82 599.24 624.14 594.32 633.61 587.84 644.27 579.99 656.01 571.26 668.77 561.47 682.05 550.86 695.4 539.76 708.57 528.17 720.84 516.31 731.62 504.27 740.76 492.16 747.47 480.13 751.33 468.08 752.67 456.19 750.91 444.53 746.11 432.88 739.23 421.48 730.08 410.34 719.25 399.19 708.14 388.54 697.06 378.35 686.74 368.11 678.13 358.27 671.25 348.78 666.36 339.17 663.98 329.83 663.58 320.69 664.91 311.33 668.17 302.07 672.37 292.84 677 283.28 682.21 273.66 686.87 263.94 690.53 253.85 693.49 243.63 694.79 233.31 694.27 222.74 692.37 212.19 688.5 201.77 682.77 191.42 675.68 181.45 666.97 172.05 656.93 163.12 645.96 155.01 634.06 147.86 621.52 141.42 608.58 135.99 595.36 131.6 582.06 127.71 568.76 124.59 555.59 122.1 542.66 119.53 529.93 117.17 517.49 114.83 505.38 111.88 493.49 108.7 481.89 105.28 470.56 101.19 459.4 97.03 448.43 93 437.63 88.84 426.92 85.27 416.3 82.55 405.76 80.39 395.26 79.43 384.79 79.75 374.37 80.8 363.95 82.95 353.81 85.96 343.98 89.1 334.15 92.61 324.64 96.24 315.49 99.32 306.37 102.22 297.63 104.9 289.32 106.87 281.05 108.76 273.22 110.71 265.87 112.42 258.55 114.63 251.69 117.5 245.3 120.78 238.87 125.07 232.84 130.4 227.18 136.46 221.35 143.56 215.78 151.59 210.4 160.15 204.68 169.37 199 179.04 193.3 188.79 187.08 198.69 180.72 208.6 174.17 218.19 167.04 227.62 159.69 236.87 152.17 245.63 144.18 254.23 136.14 262.7 128.16 270.75 120.05 278.79 112.26 286.92 104.99 294.75 98.04 302.79 91.92 311.11 86.8 319.26 82.4 327.78 79.22 336.7 77.34 345.54 76.29 354.82 76.51 364.58 77.95 374.31 79.91 384.53 82.77 395.28 86.37" stroke-dasharray="0 0" transform="rotate(10.297297297297298, 400, 400)" opacity="0.92"></path><path d="M402.24 95.41C412.85 98.92 423.78 102.63 434.99 106.35 446.24 109.44 457.8 112.29 469.64 114.84 481.5 116.58 493.61 118.03 505.86 119.26 518.05 119.85 530.24 120.46 542.25 121.21 553.93 121.73 565.13 122.7 575.6 124.23 585.31 125.96 593.89 128.49 601.05 131.87 607.1 135.74 611.48 140.56 614.12 146.29 615.72 152.59 615.82 159.77 614.71 167.74 613.51 176.19 612.04 185.3 610.92 194.95 611.39 204.92 613.43 215.3 617.62 225.97 624.65 236.79 634.27 247.8 646.36 258.92 660.58 270.07 676.03 281.28 691.66 292.48 706.46 303.66 719.06 314.83 728.25 325.97 733.58 337.07 734.2 348.17 730.03 359.23 722.27 370.28 711.35 381.32 698.7 392.35 686.72 403.38 676.42 414.41 669.33 425.4 667.06 436.4 669.31 447.1 675.57 457.45 685.39 467.78 696.72 477.72 707.88 487.22 718.02 496.63 725.09 505.53 728.15 513.84 727.3 522 721.93 529.49 712.57 536.26 700.26 542.81 685.7 548.61 670.06 553.61 654.49 558.43 639.81 562.51 626.75 565.89 615.92 569.27 607.38 572.14 601.05 574.64 595.9 578.91 593.28 589.34 592.79 596.7 592.24 603.14 590.59 610.62 587.69 619.22 584.04 629.16 578.98 640.14 572.61 651.99 565.46 664.64 557.17 677.61 547.97 690.47 538.25 703.01 527.89 714.53 517.08 724.52 506.04 732.87 494.77 738.86 483.42 742.14 472 743.05 460.61 741.06 449.33 736.23 438.05 729.49 426.91 720.64 415.94 710.21 404.98 699.52 394.42 688.82 384.24 678.79 374.02 670.3 364.12 663.38 354.49 658.27 344.75 655.5 335.19 654.57 325.78 655.3 316.15 657.91 306.56 661.49 296.97 665.59 287.09 670.4 277.13 674.83 267.07 678.48 256.74 681.65 246.32 683.38 235.88 683.5 225.32 682.44 214.88 679.56 204.68 674.92 194.68 669.01 185.17 661.52 176.31 652.66 168.01 642.86 160.56 632.05 154.1 620.48 148.31 608.42 143.5 595.94 139.64 583.25 136.19 570.45 133.41 557.65 131.14 545 128.71 532.44 126.39 520.11 124.01 508.05 120.98 496.16 117.68 484.53 114.14 473.17 109.94 461.96 105.67 450.96 101.55 440.17 97.35 429.46 93.75 418.89 91.02 408.47 88.88 398.08 87.94 387.79 88.3 377.61 89.4 367.43 91.6 357.59 94.67 348.1 97.89 338.61 101.49 329.48 105.21 320.74 108.4 312 111.4 303.67 114.15 295.77 116.17 287.88 118.06 280.42 119.93 273.41 121.5 266.39 123.45 259.8 125.99 253.61 128.84 247.34 132.62 241.41 137.4 235.79 142.86 229.95 149.37 224.3 156.84 218.78 164.91 212.89 173.72 207 183.09 201.05 192.66 194.59 202.5 187.97 212.46 181.18 222.23 173.84 231.92 166.32 241.48 158.66 250.65 150.61 259.65 142.55 268.51 134.62 276.96 126.63 285.36 119.01 293.77 111.96 301.88 105.26 310.12 99.41 318.56 94.58 326.81 90.46 335.35 87.53 344.25 85.87 353.04 85.01 362.25 85.37 371.9 86.89 381.51 88.92 391.61 91.81 402.23 95.41" stroke-dasharray="0 0" transform="rotate(13.72972972972973, 400, 400)" opacity="0.90"></path><path d="M408.97 104.45C419.44 107.96 430.17 111.67 441.14 115.39 452.13 118.52 463.35 121.43 474.75 124.05 486.14 125.88 497.64 127.44 509.14 128.76 520.5 129.45 531.69 130.11 542.51 130.86 552.93 131.35 562.7 132.2 571.58 133.55 579.71 135.02 586.65 137.22 592.19 140.19 598.3 145.73 602.19 161.99 601.06 172.58 600.36 180.38 599.8 188.87 599.96 197.93 601.89 207.33 605.54 217.18 611.34 227.38 619.74 237.76 630.45 248.39 643.2 259.16 657.57 270.01 672.68 280.95 687.51 291.92 701.17 302.9 712.42 313.88 720.23 324.83 724.34 335.77 724.01 346.69 719.3 357.55 711.42 368.41 700.74 379.23 688.62 389.99 677.26 400.75 667.52 411.46 660.79 422.08 658.53 432.7 660.48 442.96 666.17 452.83 675.28 462.67 685.92 472.08 696.62 481.01 706.62 489.86 713.98 498.16 717.78 505.87 718.07 513.45 714.12 520.37 706.3 526.61 695.5 532.69 682.22 538.06 667.51 542.74 652.4 547.31 637.68 551.26 624.09 554.65 612.27 558.13 602.41 561.25 594.58 564.14 587 569.19 580.7 581.78 579.4 590.33 578.78 597.49 577.45 605.62 575.16 614.75 572.41 625.05 568.46 636.22 563.31 648.07 557.52 660.53 550.61 673.12 542.74 685.43 534.37 697.29 525.25 708.05 515.56 717.25 505.59 724.83 495.25 730.15 484.67 732.87 474 733.39 463.21 731.18 452.4 726.35 441.58 719.76 430.77 711.2 420.03 701.17 409.29 690.89 398.84 680.57 388.69 670.83 378.49 662.48 368.52 655.54 358.75 650.25 348.87 647.12 339.11 645.71 329.43 645.86 319.56 647.84 309.69 650.8 299.78 654.35 289.66 658.71 279.45 662.85 269.18 666.41 258.74 669.67 248.28 671.72 237.87 672.37 227.48 672.02 217.31 670.01 207.48 666.37 197.97 661.57 189.03 655.23 180.82 647.54 173.2 638.9 166.46 629.2 160.7 618.66 155.56 607.56 151.33 595.93 147.97 583.98 144.91 571.81 142.41 559.53 140.31 547.29 137.95 535.06 135.62 522.97 133.17 511.09 130.02 499.32 126.6 487.78 122.91 476.49 118.6 465.31 114.24 454.35 110.05 443.62 105.81 432.97 102.21 422.49 99.48 412.2 97.37 401.94 96.46 391.82 96.84 381.87 97.99 371.92 100.23 362.35 103.34 353.17 106.63 343.98 110.31 335.18 114.12 326.79 117.42 318.38 120.53 310.39 123.38 302.82 125.48 295.23 127.39 288.06 129.23 281.3 130.69 274.5 132.45 268.08 134.68 262.01 137.14 255.82 140.44 249.92 144.66 244.25 149.52 238.34 155.41 232.56 162.27 226.86 169.76 220.77 178.06 214.65 187.01 208.44 196.27 201.73 205.92 194.87 215.8 187.84 225.61 180.33 235.45 172.66 245.23 164.91 254.7 156.83 264.05 148.81 273.27 140.97 282.13 133.13 290.91 125.72 299.65 118.91 308.09 112.49 316.6 106.93 325.24 102.39 333.69 98.55 342.36 95.87 351.31 94.43 360.15 93.75 369.35 94.25 378.94 95.86 388.49 97.94 398.49 100.86 408.96 104.45" stroke-dasharray="0 0" transform="rotate(17.16216216216216, 400, 400)" opacity="0.87"></path><path d="M414.84 113.5C425.13 117 435.61 120.7 446.23 124.42 456.87 127.58 467.63 130.54 478.45 133.23 489.22 135.16 499.97 136.82 510.56 138.25 520.95 139.03 531.01 139.76 540.55 140.54 549.65 141.01 557.99 141.79 565.36 142.99 574.76 145.2 586.15 153.61 588.13 160.11 588.7 165.19 588.53 171.11 587.97 177.79 588.07 184.93 588.65 192.77 590.22 201.2 593.64 209.98 598.83 219.26 606.08 228.91 615.64 238.79 627.17 248.95 640.32 259.3 654.61 269.77 669.18 280.36 683.07 291 695.51 301.69 705.4 312.41 711.88 323.1 714.84 333.8 713.67 344.47 708.5 355.08 700.55 365.69 690.16 376.24 678.57 386.69 667.82 397.16 658.64 407.52 652.25 417.75 650.02 427.98 651.67 437.81 656.82 447.21 665.23 456.58 675.2 465.49 685.39 473.89 695.18 482.23 702.73 490.01 707.16 497.21 708.47 504.3 705.84 510.77 699.51 516.59 690.23 522.32 678.32 527.41 664.69 531.9 650.29 536.36 635.8 540.32 621.99 543.84 609.48 547.54 598.56 551.01 589.43 554.39 582.3 558.27 576.85 562.34 572.77 566.76 570.18 572.06 568.3 577.98 566.7 584.67 565.64 592.46 564.22 601.13 562.16 610.68 559.92 621.23 556.72 632.48 552.48 644.23 547.78 656.39 542.04 668.52 535.34 680.24 528.21 691.39 520.26 701.4 511.65 709.81 502.77 716.66 493.39 721.32 483.63 723.53 473.77 723.68 463.65 721.29 453.37 716.46 443.07 710.03 432.67 701.77 422.2 692.13 411.73 682.26 401.44 672.32 391.34 662.86 381.2 654.68 371.2 647.74 361.32 642.3 351.35 638.85 341.43 636.99 331.53 636.6 321.5 637.96 311.43 640.31 301.32 643.31 291.06 647.17 280.75 650.97 270.42 654.36 260.02 657.62 249.68 659.87 239.48 660.92 229.41 661.15 219.66 659.9 210.35 657.15 201.44 653.36 193.17 648.11 185.68 641.53 178.79 634.05 172.78 625.46 167.71 615.98 163.19 605.91 159.51 595.2 156.58 584.07 153.85 572.65 151.57 561.01 149.57 549.31 147.24 537.54 144.84 525.82 142.28 514.25 139 502.72 135.42 491.37 131.59 480.25 127.17 469.2 122.73 458.37 118.48 447.76 114.23 437.22 110.63 426.87 107.92 416.73 105.85 406.62 104.98 396.69 105.39 386.96 106.57 377.23 108.84 367.91 111.99 359 115.34 350.08 119.08 341.56 122.97 333.45 126.38 325.32 129.61 317.6 132.56 310.28 134.77 302.93 136.75 295.96 138.59 289.38 139.99 282.72 141.59 276.39 143.57 270.37 145.68 264.18 148.53 258.23 152.23 252.47 156.48 246.43 161.74 240.48 167.94 234.56 174.8 228.26 182.51 221.89 190.93 215.42 199.76 208.48 209.08 201.4 218.73 194.17 228.45 186.51 238.29 178.75 248.15 170.94 257.83 162.88 267.43 154.94 276.92 147.23 286.14 139.58 295.26 132.4 304.32 125.85 313.11 119.73 321.92 114.48 330.8 110.23 339.49 106.68 348.34 104.26 357.39 103.03 366.34 102.53 375.57 103.15 385.13 104.84 394.64 106.98 404.54 109.91 414.83 113.49" stroke-dasharray="0 0" transform="rotate(20.594594594594597, 400, 400)" opacity="0.85"></path><path d="M419.29 122.54C429.37 126.02 439.52 129.71 449.72 133.43 459.91 136.62 470.11 139.62 480.24 142.38 490.3 144.41 500.18 146.17 509.76 147.7 519.12 148.6 528.01 149.41 536.27 150.24 547.59 151.1 564.64 154.46 569.91 157.56 573.28 161.79 575.45 174.7 575.78 183.4 576.89 189.89 578.74 197.06 581.77 204.83 586.65 212.98 593.25 221.62 601.74 230.68 612.23 239.99 624.33 249.62 637.61 259.48 651.59 269.49 665.44 279.65 678.27 289.9 689.44 300.23 698 310.59 703.2 320.95 705.1 331.34 703.18 341.71 697.64 352 689.68 362.31 679.61 372.54 668.56 382.65 658.41 392.78 649.76 402.78 643.7 412.6 641.5 422.43 642.89 431.84 647.52 440.79 655.25 449.72 664.54 458.17 674.21 466.11 683.73 473.99 691.38 481.33 696.31 488.11 698.5 494.81 697.09 500.93 692.18 506.46 684.4 511.95 673.93 516.89 661.51 521.32 648.01 525.8 634.02 529.88 620.28 533.64 607.38 537.66 595.71 541.56 585.51 545.47 577.06 549.93 570.17 554.65 564.68 559.78 560.7 565.75 557.61 572.36 555.06 579.68 553.26 588 551.41 597.1 549.23 606.96 547.11 617.64 544.29 628.85 540.64 640.4 536.71 652.2 531.86 663.81 526.11 674.89 520.02 685.32 513.12 694.56 505.5 702.21 497.63 708.34 489.18 712.38 480.25 714.1 471.2 713.92 461.79 711.38 452.08 706.57 442.35 700.31 432.39 692.35 422.25 683.09 412.11 673.62 402.03 664.05 392.03 654.89 382.01 646.88 372.04 639.98 362.11 634.42 352.12 630.68 342.12 628.41 332.11 627.52 322.02 628.29 311.87 630.04 301.7 632.47 291.45 635.82 281.19 639.22 270.97 642.37 260.79 645.54 250.73 647.89 240.92 649.22 231.32 649.92 222.13 649.3 213.46 647.33 205.25 644.44 197.72 640.18 191 634.65 184.85 628.27 179.56 620.79 175.15 612.37 171.21 603.34 168.01 593.61 165.45 583.37 162.98 572.79 160.84 561.89 158.89 550.83 156.52 539.64 154.03 528.42 151.31 517.25 147.88 506.09 144.15 495.05 140.17 484.19 135.65 473.37 131.14 462.74 126.85 452.32 122.61 441.95 119.03 431.78 116.35 421.83 114.33 411.9 113.49 402.17 113.93 392.65 115.14 383.13 117.44 374.04 120.61 365.37 124 356.68 127.8 348.39 131.76 340.52 135.28 332.61 138.62 325.09 141.7 317.96 144.03 310.78 146.1 303.95 147.98 297.46 149.37 290.87 150.87 284.56 152.65 278.52 154.47 272.29 156.91 266.24 160.11 260.32 163.79 254.12 168.41 247.97 173.95 241.82 180.12 235.29 187.17 228.68 194.98 221.96 203.27 214.82 212.12 207.55 221.4 200.16 230.87 192.4 240.56 184.57 250.36 176.76 260.09 168.77 269.82 160.94 279.48 153.4 288.95 145.98 298.34 139.06 307.66 132.8 316.77 127 325.85 122.06 334.96 118.11 343.89 114.85 352.93 112.68 362.09 111.66 371.16 111.33 380.44 112.08 389.96 113.85 399.44 116.02 409.21 118.97 419.28 122.53" stroke-dasharray="0 0" transform="rotate(24.027027027027028, 400, 400)" opacity="0.82"></path><path d="M421.9 131.58C431.71 135.05 441.49 138.71 451.19 142.42 460.87 145.63 470.44 148.67 479.81 151.49 489.09 153.62 498.06 155.49 506.62 157.13 514.95 158.14 522.71 159.05 529.77 159.95 539.34 160.83 553.22 163.87 557.35 166.59 560.15 170.26 563.06 181.65 564.72 189.45 567 195.29 570.19 201.8 574.64 208.91 580.87 216.39 588.72 224.38 598.23 232.81 609.38 241.51 621.78 250.56 634.95 259.86 648.41 269.34 661.38 279.01 673.07 288.8 682.96 298.68 690.2 308.63 694.2 318.59 695.13 328.61 692.56 338.6 686.73 348.52 678.82 358.48 669.1 368.35 658.59 378.09 649.02 387.84 640.89 397.46 635.16 406.88 632.99 416.31 634.13 425.3 638.27 433.83 645.35 442.35 653.97 450.39 663.08 457.92 672.28 465.42 679.93 472.39 685.26 478.84 688.21 485.24 687.89 491.12 684.31 496.48 678 501.84 668.97 506.74 657.86 511.23 645.43 515.82 632.17 520.12 618.76 524.21 605.79 528.61 593.66 532.99 582.68 537.47 573.13 542.51 565 547.87 558.18 553.67 552.82 560.26 548.45 567.46 544.8 575.32 542.04 584.06 539.49 593.48 536.87 603.52 534.53 614.21 531.74 625.3 528.35 636.55 524.85 647.91 520.59 658.95 515.55 669.36 510.26 679.05 504.2 687.53 497.43 694.43 490.45 699.88 482.84 703.34 474.68 704.61 466.41 704.13 457.69 701.46 448.57 696.68 439.42 690.59 429.94 682.92 420.17 674.05 410.4 664.97 400.59 655.78 390.77 646.92 380.94 639.09 371.07 632.24 361.19 626.59 351.28 622.61 341.32 619.97 331.33 618.61 321.3 618.81 311.24 619.98 301.16 621.85 291.09 624.67 281.05 627.64 271.12 630.48 261.31 633.48 251.7 635.83 242.42 637.34 233.43 638.38 224.91 638.27 216.99 636.95 209.53 634.86 202.79 631.5 196.85 626.93 191.44 621.58 186.84 615.15 183.04 607.78 179.61 599.8 176.81 591.07 174.55 581.76 172.26 572.07 170.2 561.99 168.23 551.65 165.77 541.14 163.14 530.51 160.25 519.86 156.65 509.17 152.76 498.54 148.65 488.02 144.03 477.53 139.47 467.18 135.16 457.02 130.94 446.89 127.4 436.94 124.77 427.21 122.8 417.49 122.01 407.97 122.48 398.67 123.71 389.37 126.02 380.49 129.2 372.03 132.62 363.55 136.46 355.46 140.49 347.76 144.1 340.03 147.57 332.67 150.77 325.66 153.24 318.58 155.43 311.82 157.39 305.36 158.81 298.78 160.26 292.45 161.9 286.32 163.47 280 165.58 273.81 168.33 267.71 171.47 261.33 175.47 254.97 180.34 248.58 185.81 241.83 192.16 234.99 199.29 228.06 206.93 220.74 215.21 213.32 224 205.8 233.07 197.99 242.45 190.16 252.03 182.39 261.66 174.51 271.35 166.84 281.05 159.51 290.64 152.35 300.18 145.72 309.66 139.78 318.99 134.3 328.28 129.68 337.56 126.04 346.7 123.07 355.88 121.15 365.13 120.34 374.3 120.17 383.6 121.04 393.05 122.87 402.47 125.08 412.09 128.03 421.89 131.57" stroke-dasharray="0 0" transform="rotate(27.45945945945946, 400, 400)" opacity="0.79"></path><path d="M422.42 140.62C431.91 144.06 441.26 147.7 450.42 151.39 459.56 154.61 468.46 157.7 477.05 160.57 485.54 162.78 493.62 164.76 501.2 166.51 508.56 167.65 515.3 168.67 521.31 169.65 535.21 172.01 547.25 179 549.19 183.44 550.84 186.92 552.68 191.1 555.01 195.95 558.51 201.16 563.04 207.03 568.83 213.49 576.25 220.29 585.12 227.62 595.39 235.4 606.95 243.45 619.38 251.87 632.21 260.58 644.97 269.48 656.96 278.6 667.44 287.87 676.05 297.25 682.02 306.72 684.9 316.23 684.95 325.8 681.82 335.37 675.78 344.88 667.98 354.43 658.62 363.9 648.66 373.25 639.66 382.61 632.03 391.82 626.61 400.84 624.49 409.87 625.39 418.46 629.07 426.61 635.51 434.75 643.47 442.42 652.03 449.62 660.84 456.79 668.42 463.48 674.02 469.68 677.61 475.88 678.27 481.61 675.9 486.9 670.99 492.22 663.41 497.18 653.66 501.81 642.43 506.6 630.08 511.2 617.26 515.68 604.51 520.5 592.21 525.38 580.75 530.43 570.39 536.04 561.22 541.99 553.25 548.4 546.6 555.53 540.97 563.23 536.16 571.53 532.31 580.58 528.86 590.2 525.57 600.3 522.72 610.91 519.65 621.76 516.21 632.64 512.82 643.49 508.85 653.92 504.23 663.63 499.48 672.58 494.04 680.3 487.93 686.49 481.66 691.29 474.77 694.19 467.29 695.05 459.72 694.3 451.63 691.51 443.09 686.79 434.51 680.88 425.52 673.51 416.17 665.01 406.81 656.32 397.32 647.5 387.75 638.95 378.19 631.31 368.53 624.54 358.81 618.83 349.09 614.64 339.3 611.66 329.47 609.87 319.66 609.55 309.82 610.15 300.01 611.47 290.27 613.74 280.63 616.25 271.15 618.74 261.86 621.5 252.85 623.76 244.24 625.34 235.96 626.61 228.21 626.89 221.08 626.11 214.42 624.69 208.47 622.11 203.29 618.41 198.58 614.01 194.61 608.56 191.36 602.19 188.36 595.23 185.89 587.5 183.84 579.13 181.65 570.38 179.6 561.16 177.55 551.61 174.96 541.85 172.16 531.89 169.08 521.84 165.3 511.71 161.25 501.57 157.01 491.49 152.32 481.4 147.72 471.4 143.41 461.56 139.23 451.74 135.75 442.07 133.18 432.59 131.27 423.12 130.53 413.84 131.02 404.76 132.27 395.68 134.59 387 137.76 378.72 141.2 370.43 145.07 362.51 149.15 354.95 152.85 347.35 156.43 340.09 159.76 333.15 162.39 326.13 164.71 319.4 166.79 312.92 168.27 306.31 169.73 299.9 171.29 293.65 172.68 287.2 174.5 280.85 176.87 274.56 179.52 267.99 182.95 261.41 187.18 254.79 191.95 247.84 197.57 240.81 203.97 233.69 210.9 226.24 218.52 218.71 226.7 211.13 235.23 203.32 244.16 195.53 253.37 187.86 262.72 180.13 272.23 172.67 281.79 165.58 291.34 158.71 300.9 152.4 310.41 146.78 319.84 141.64 329.23 137.36 338.59 134.03 347.85 131.34 357.11 129.67 366.38 129.05 375.59 129.05 384.86 130.02 394.2 131.91 403.51 134.16 412.92 137.1 422.41 140.62" stroke-dasharray="0 0" transform="rotate(30.891891891891895, 400, 400)" opacity="0.77"></path><path d="M420.8 149.66C429.93 153.07 438.81 156.68 447.41 160.35 455.98 163.58 464.22 166.69 472.06 169.61 479.79 171.91 487.06 173.99 493.76 175.85 503.22 177.68 518.35 180.38 523.9 181.72 531.76 185.55 541.81 196.77 546.78 202.92 551.5 207.54 557.27 212.79 564.25 218.61 572.66 224.75 582.31 231.41 593.07 238.53 604.78 245.92 617.01 253.69 629.29 261.78 641.21 270.06 652.11 278.59 661.35 287.29 668.69 296.12 673.45 305.07 675.3 314.07 674.58 323.16 670.98 332.26 664.8 341.32 657.15 350.43 648.19 359.47 638.77 368.39 630.33 377.33 623.18 386.14 618.07 394.77 615.99 403.39 616.67 411.61 619.91 419.41 625.75 427.2 633.06 434.56 641.04 441.48 649.43 448.38 656.87 454.86 662.64 460.91 666.74 466.97 668.24 472.63 666.98 477.94 663.39 483.31 657.21 488.4 648.84 493.26 638.89 498.3 627.63 503.23 615.6 508.14 603.32 513.4 591.16 518.78 579.5 524.38 568.63 530.51 558.69 537.01 549.77 543.94 542.01 551.52 535.22 559.62 529.27 568.24 524.28 577.48 519.83 587.18 515.7 597.24 512.13 607.66 508.55 618.19 504.8 628.62 501.23 638.9 497.26 648.69 492.8 657.68 488.32 665.9 483.26 672.89 477.6 678.38 471.86 682.56 465.51 684.95 458.6 685.42 451.61 684.43 444.09 681.56 436.08 676.9 428.03 671.17 419.53 664.1 410.62 655.97 401.7 647.66 392.59 639.21 383.35 630.96 374.13 623.54 364.77 616.86 355.33 611.12 345.92 606.75 336.43 603.48 326.92 601.29 317.46 600.49 308.01 600.56 298.63 601.33 289.38 603.06 280.27 605.09 271.39 607.18 262.75 609.64 254.45 611.74 246.6 613.3 239.11 614.69 232.16 615.24 225.86 614.87 217.4 613.04 204.58 603.32 200.07 595.61 197.42 589.63 195.18 582.86 193.25 575.44 191.09 567.62 188.98 559.28 186.8 550.56 184.05 541.6 181.05 532.37 177.76 522.98 173.82 513.48 169.62 503.9 165.26 494.32 160.52 484.71 155.9 475.15 151.61 465.68 147.49 456.22 144.08 446.87 141.58 437.68 139.74 428.5 139.05 419.47 139.56 410.62 140.83 401.78 143.14 393.3 146.3 385.19 149.74 377.07 153.62 369.28 157.73 361.84 161.52 354.34 165.21 347.15 168.67 340.24 171.45 333.25 173.94 326.5 176.15 319.96 177.75 313.29 179.25 306.77 180.78 300.39 182.07 293.8 183.67 287.28 185.72 280.79 187.95 274.03 190.86 267.26 194.49 260.44 198.58 253.32 203.48 246.13 209.15 238.87 215.32 231.34 222.21 223.76 229.69 216.16 237.57 208.4 245.92 200.71 254.62 193.18 263.54 185.66 272.68 178.44 281.96 171.63 291.31 165.08 300.71 159.1 310.11 153.83 319.49 149.04 328.85 145.09 338.16 142.07 347.43 139.66 356.67 138.23 365.87 137.81 375.04 137.96 384.21 139.03 393.36 140.97 402.51 143.24 411.66 146.17 420.79 149.66" stroke-dasharray="0 0" transform="rotate(34.32432432432432, 400, 400)" opacity="0.74"></path><path d="M417.18 158.7C425.92 162.07 434.32 165.64 442.37 169.28 450.38 172.51 457.99 175.64 465.14 178.61 472.21 180.99 478.76 183.17 484.74 185.14 493.18 187.16 506.68 190.16 511.76 191.55 520.09 195.05 533.38 204.93 540.09 210.35 545.95 214.42 552.81 219.09 560.78 224.3 569.95 229.8 580.12 235.81 591.11 242.28 602.71 249 614.52 256.12 626.08 263.57 637.03 271.21 646.78 279.12 654.78 287.23 660.88 295.47 664.52 303.86 665.42 312.33 664.03 320.88 660.05 329.48 653.8 338.07 646.34 346.7 637.8 355.29 628.92 363.78 621.02 372.29 614.34 380.69 609.52 388.93 607.49 397.17 607.97 405.03 610.8 412.52 616.06 419.99 622.74 427.08 630.13 433.78 638.07 440.48 645.29 446.8 651.14 452.76 656.73 461.59 652.76 477.93 643.35 485.69 634.74 491.03 624.66 496.33 613.6 501.66 602.03 507.35 590.27 513.21 578.71 519.31 567.62 525.91 557.2 532.87 547.59 540.23 538.93 548.17 531.14 556.56 524.16 565.37 518.08 574.7 512.61 584.36 507.58 594.27 503.15 604.4 498.89 614.53 494.62 624.45 490.64 634.13 486.44 643.24 481.91 651.51 477.45 659 472.53 665.27 467.13 670.1 461.69 673.69 455.73 675.6 449.24 675.74 442.71 674.53 435.66 671.59 428.12 667.02 420.55 661.48 412.52 654.69 404.05 646.92 395.58 639 386.9 630.91 378.06 622.98 369.24 615.77 360.29 609.2 351.24 603.46 342.24 598.95 333.18 595.43 324.12 592.89 315.14 591.63 306.21 591.19 297.41 591.45 288.76 592.64 280.31 594.17 272.15 595.85 264.26 597.95 256.74 599.82 249.71 601.28 239.97 603.04 224.08 602.19 218.04 599.21 213.05 594.54 205.67 580.09 202.73 570.64 200.53 563.74 198.3 556.29 195.95 548.4 193 540.26 189.79 531.8 186.29 523.11 182.18 514.3 177.84 505.34 173.39 496.31 168.61 487.24 164.01 478.15 159.76 469.11 155.71 460.07 152.39 451.09 149.97 442.22 148.21 433.36 147.57 424.61 148.11 416 149.39 407.4 151.68 399.13 154.81 391.18 158.23 383.22 162.12 375.56 166.25 368.2 170.11 360.79 173.89 353.64 177.48 346.74 180.43 339.75 183.08 332.96 185.44 326.35 187.19 319.59 188.79 312.97 190.34 306.43 191.59 299.7 193.05 293.02 194.86 286.34 196.74 279.43 199.2 272.49 202.29 265.5 205.75 258.26 209.96 250.96 214.9 243.62 220.31 236.05 226.42 228.47 233.15 220.92 240.29 213.26 247.96 205.72 256.03 198.39 264.38 191.11 273.02 184.18 281.86 177.68 290.83 171.47 299.92 165.85 309.05 160.94 318.22 156.5 327.39 152.89 336.53 150.18 345.67 148.05 354.77 146.85 363.8 146.61 372.83 146.9 381.8 148.07 390.7 150.06 399.61 152.34 408.44 155.26 417.17 158.7" stroke-dasharray="0 0" transform="rotate(37.75675675675676, 400, 400)" opacity="0.72"></path><path d="M411.93 167.74C420.24 171.07 428.16 174.6 435.69 178.19 443.18 181.42 450.22 184.56 456.79 187.56 466.28 191.16 482.42 196.59 489.03 198.59 499.94 201.31 514.21 206.7 519.59 209.74 524.04 212.04 529.09 214.88 534.91 218.23 541.77 221.81 549.55 225.94 558.27 230.58 567.94 235.48 578.37 240.87 589.33 246.71 600.6 252.77 611.79 259.24 622.48 266.05 632.38 273.04 640.94 280.32 647.7 287.83 652.64 295.46 655.22 303.27 655.29 311.19 653.32 319.19 649.05 327.27 642.79 335.36 635.57 343.49 627.45 351.61 619.11 359.67 611.74 367.74 605.51 375.73 600.98 383.59 598.99 391.46 599.3 398.99 601.74 406.2 606.45 413.39 612.51 420.25 619.32 426.78 626.77 433.32 633.71 439.54 639.54 445.47 645.7 454.31 644.6 471.07 637.16 479.23 629.89 484.87 621.07 490.53 611.11 496.27 600.44 502.36 589.32 508.65 578.11 515.19 567.11 522.18 556.5 529.51 546.48 537.2 537.17 545.39 528.6 553.95 520.76 562.85 513.71 572.14 507.28 581.67 501.35 591.32 496.04 601.09 491 610.74 486.1 620.1 481.55 629.14 476.93 637.55 472.14 645.11 467.49 651.87 462.52 657.45 457.19 661.65 451.87 664.69 446.12 666.17 439.92 665.99 433.7 664.59 427.02 661.61 419.88 657.13 412.72 651.78 405.12 645.29 397.1 637.88 389.08 630.33 380.85 622.6 372.46 614.98 364.11 608 355.62 601.56 347.07 595.84 338.57 591.23 330.04 587.49 321.55 584.64 313.16 582.97 304.87 582.07 296.74 581.82 288.8 582.49 281.09 583.53 273.72 584.76 266.62 586.47 259.93 588.05 253.72 589.34 245.19 591.06 231.47 590.95 226.31 588.72 221.95 585.03 215.18 572.92 212.22 564.74 209.91 558.72 207.51 552.13 204.94 545.06 201.78 537.75 198.35 530.07 194.65 522.11 190.38 514 185.93 505.7 181.4 497.27 176.62 488.77 172.04 480.21 167.85 471.64 163.9 463.04 160.68 454.47 158.35 445.96 156.68 437.44 156.09 429 156.65 420.65 157.93 412.3 160.2 404.24 163.3 396.46 166.7 388.66 170.56 381.12 174.7 373.84 178.61 366.5 182.48 359.39 186.18 352.48 189.29 345.48 192.11 338.65 194.65 331.95 196.57 325.12 198.3 318.38 199.94 311.71 201.2 304.86 202.59 298.03 204.23 291.2 205.85 284.16 207.94 277.09 210.57 269.99 213.47 262.67 217.05 255.32 221.29 247.95 225.95 240.41 231.28 232.89 237.24 225.45 243.6 217.95 250.5 210.61 257.86 203.51 265.52 196.53 273.53 189.91 281.8 183.76 290.25 177.91 298.87 172.66 307.58 168.11 316.39 164.04 325.23 160.76 334.06 158.35 342.93 156.49 351.76 155.52 360.51 155.46 369.28 155.89 377.98 157.13 386.55 159.16 395.14 161.45 403.61 164.34 411.92 167.74" stroke-dasharray="0 0" transform="rotate(41.18918918918919, 400, 400)" opacity="0.69"></path><path d="M405.53 176.78C413.4 180.06 420.87 183.54 427.92 187.09 434.94 190.3 441.51 193.45 447.61 196.48 456.45 200.18 471.6 205.95 477.97 208.13 483.97 209.65 494.73 212.58 500.04 214.36 506.17 216.33 521.38 222.33 531.17 226.55 538.84 229.69 547.3 233.33 556.51 237.45 566.43 241.79 576.86 246.59 587.55 251.84 598.28 257.28 608.7 263.12 618.41 269.31 627.19 275.66 634.55 282.32 640.12 289.22 643.95 296.24 645.59 303.46 644.92 310.82 642.46 318.26 637.98 325.8 631.79 333.38 624.83 341.01 617.15 348.66 609.34 356.28 602.49 363.92 596.68 371.51 592.43 379.01 590.5 386.51 590.64 393.74 592.72 400.69 596.9 407.63 602.37 414.3 608.6 420.7 615.54 427.11 622.15 433.28 627.89 439.21 634.43 448.12 635.83 465.37 630.23 473.94 624.29 479.86 616.76 485.86 607.98 491.97 598.36 498.41 588.08 505.06 577.47 511.95 566.81 519.25 556.31 526.85 546.16 534.77 536.49 543.08 527.39 551.7 518.9 560.57 511.07 569.72 503.82 579.01 497.08 588.33 490.91 597.65 485.09 606.78 479.51 615.53 474.31 623.91 469.17 631.62 463.98 638.46 458.99 644.52 453.82 649.43 448.4 653.04 443.04 655.57 437.36 656.64 431.32 656.18 425.28 654.63 418.86 651.63 412.05 647.25 405.23 642.1 398.01 635.89 390.42 628.84 382.83 621.66 375.07 614.28 367.18 606.98 359.32 600.23 351.36 593.95 343.37 588.27 335.44 583.59 327.52 579.68 319.68 576.55 311.95 574.51 304.36 573.18 296.99 572.46 289.79 572.63 282.88 573.18 276.33 573.96 267.08 575.88 251.34 579.1 245 579.69 235.37 577.15 224.72 564.82 221.63 557.8 219.16 552.59 216.56 546.81 213.75 540.53 210.37 534.03 206.72 527.11 202.82 519.87 198.41 512.49 193.87 504.85 189.3 497.04 184.53 489.15 180.01 481.14 175.9 473.06 172.07 464.96 168.95 456.82 166.73 448.68 165.15 440.55 164.62 432.43 165.2 424.36 166.48 416.28 168.72 408.44 171.76 400.82 175.12 393.2 178.96 385.78 183.08 378.57 187.03 371.32 190.96 364.24 194.77 357.32 198.03 350.32 201.03 343.44 203.75 336.67 205.86 329.78 207.76 322.95 209.51 316.16 210.85 309.22 212.25 302.29 213.79 295.35 215.24 288.23 217.04 281.09 219.3 273.92 221.73 266.59 224.74 259.24 228.35 251.9 232.3 244.45 236.89 237.06 242.08 229.78 247.64 222.49 253.75 215.41 260.34 208.6 267.23 201.93 274.52 195.67 282.12 189.88 289.92 184.41 297.95 179.55 306.12 175.37 314.42 171.66 322.8 168.72 331.19 166.6 339.65 165.01 348.09 164.25 356.47 164.36 364.87 164.9 373.2 166.23 381.39 168.28 389.59 170.58 397.65 173.44 405.52 176.78" stroke-dasharray="0 0" transform="rotate(44.62162162162162, 400, 400)" opacity="0.67"></path><path d="M398.61 185.83C406.04 189.05 413.08 192.46 419.71 195.97 426.33 199.16 432.52 202.3 438.28 205.35 446.67 209.14 461.35 215.23 467.79 217.61 474.08 219.32 486.21 222.47 492.58 224.24 497.36 225.38 502.48 226.82 508.05 228.6 514.31 230.4 521.18 232.62 528.7 235.26 536.96 238.01 545.85 241.23 555.3 244.89 565.22 248.72 575.4 252.99 585.6 257.69 595.63 262.54 605.15 267.79 613.79 273.39 621.42 279.13 627.61 285.18 632.05 291.49 634.85 297.91 635.64 304.55 634.34 311.35 631.49 318.23 626.88 325.23 620.79 332.32 614.14 339.45 606.9 346.63 599.62 353.83 593.26 361.03 587.87 368.23 583.89 375.39 582.01 382.55 582 389.49 583.75 396.21 587.43 402.92 592.32 409.43 597.98 415.72 604.4 422.04 610.63 428.17 616.2 434.14 621.19 440.17 624.76 446.1 626.67 451.93 627.17 457.9 625.78 463.85 622.57 469.83 617.9 476.01 611.66 482.3 604.11 488.73 595.64 495.44 586.34 502.37 576.53 509.53 566.46 517.03 556.32 524.8 546.32 532.82 536.59 541.16 527.23 549.73 518.35 558.46 509.96 567.37 502.08 576.33 494.67 585.22 487.76 594.05 481.23 602.6 475 610.7 469.14 618.41 463.44 625.42 457.8 631.55 452.38 636.94 446.89 641.22 441.28 644.26 435.76 646.32 430.03 647.02 424.05 646.32 418.09 644.64 411.84 641.63 405.28 637.37 398.72 632.42 391.84 626.5 384.66 619.8 377.48 612.98 370.18 605.95 362.8 598.97 355.44 592.47 348.04 586.34 340.66 580.74 333.33 576.02 326.07 571.97 318.92 568.62 311.89 566.24 305.04 564.52 298.43 563.38 288.93 563.09 272.03 564.76 264.82 565.97 253.31 567.48 240.68 564.19 237.56 560.58 234.23 555.87 226.81 542.88 222.33 534.83 218.72 529.08 214.87 522.91 210.8 516.37 206.28 509.7 201.67 502.73 197.08 495.54 192.36 488.27 187.91 480.82 183.91 473.26 180.2 465.66 177.22 457.97 175.1 450.24 173.61 442.5 173.15 434.73 173.74 426.94 175.01 419.16 177.21 411.55 180.2 404.12 183.5 396.68 187.3 389.39 191.4 382.27 195.35 375.11 199.34 368.07 203.23 361.16 206.63 354.18 209.8 347.29 212.71 340.46 215.02 333.54 217.11 326.65 219.03 319.79 220.5 312.79 221.95 305.8 223.48 298.8 224.83 291.66 226.45 284.5 228.42 277.33 230.47 270.04 233.01 262.76 236.07 255.53 239.39 248.23 243.3 241.02 247.75 233.96 252.54 226.94 257.86 220.15 263.66 213.67 269.76 207.36 276.27 201.47 283.12 196.07 290.2 191 297.54 186.53 305.07 182.73 312.75 179.37 320.55 176.76 328.4 174.93 336.34 173.59 344.29 173.04 352.19 173.3 360.14 173.96 368.02 175.35 375.77 177.42 383.54 179.71 391.17 182.54 398.6 185.82" stroke-dasharray="0 0" transform="rotate(48.054054054054056, 400, 400)" opacity="0.64"></path><path d="M391.82 194.87C398.82 198.03 405.48 201.38 411.76 204.82 418.04 207.98 423.95 211.12 429.48 214.17 437.61 218.05 452.28 224.44 459.02 227 465.79 228.91 479.55 232.35 487.01 234.16 492.54 235.28 498.44 236.65 504.79 238.31 511.75 239.95 519.24 241.94 527.29 244.31 535.89 246.75 544.97 249.61 554.39 252.87 564.07 256.25 573.79 260.05 583.33 264.24 592.51 268.56 601.03 273.27 608.56 278.31 615.05 283.48 620.1 288.96 623.47 294.7 625.36 300.55 625.39 306.62 623.56 312.89 620.41 319.22 615.74 325.71 609.82 332.31 603.49 338.95 596.71 345.67 589.93 352.45 584.06 359.24 579.07 366.06 575.34 372.89 573.53 379.72 573.38 386.39 574.82 392.9 578.04 399.41 582.38 405.77 587.47 411.98 593.35 418.21 599.17 424.33 604.51 430.33 609.47 436.41 613.25 442.43 615.62 448.42 616.82 454.54 616.34 460.68 614.18 466.88 610.71 473.28 605.71 479.79 599.41 486.46 592.14 493.38 583.93 500.49 575.07 507.82 565.79 515.42 556.25 523.24 546.65 531.26 537.12 539.52 527.78 547.92 518.76 556.41 510.08 565 501.8 573.55 493.92 581.96 486.45 590.23 479.34 598.16 472.55 605.61 466.1 612.62 459.86 618.94 453.77 624.39 447.9 629.12 442.06 632.81 436.2 635.33 430.46 636.96 424.6 637.33 418.61 636.41 412.65 634.63 406.49 631.63 400.13 627.49 393.76 622.75 387.18 617.12 380.37 610.76 373.56 604.29 366.69 597.62 359.82 590.95 352.97 584.7 346.13 578.76 339.36 573.25 332.64 568.52 326.03 564.37 319.59 560.83 313.25 558.17 307.12 556.1 301.27 554.55 292.88 553.6 278.12 553.96 271.89 554.66 256.06 554.43 243.6 546.19 239.96 541.08 237.06 537.25 233.96 532.89 230.65 528.02 226.83 522.98 222.79 517.49 218.57 511.63 213.97 505.63 209.32 499.31 204.75 492.73 200.1 486.07 195.76 479.19 191.88 472.14 188.32 465.05 185.47 457.83 183.47 450.51 182.08 443.19 181.68 435.77 182.29 428.3 183.55 420.83 185.7 413.47 188.61 406.23 191.86 398.99 195.59 391.86 199.64 384.84 203.6 377.79 207.61 370.83 211.57 363.95 215.1 357.01 218.42 350.13 221.51 343.29 224.03 336.37 226.33 329.47 228.44 322.58 230.08 315.59 231.65 308.59 233.24 301.59 234.58 294.48 236.1 287.37 237.88 280.27 239.65 273.1 241.82 265.95 244.43 258.88 247.21 251.79 250.51 244.83 254.31 238.04 258.37 231.33 262.94 224.88 267.98 218.76 273.28 212.85 279.01 207.35 285.09 202.36 291.4 197.69 298 193.61 304.82 190.19 311.8 187.19 318.94 184.89 326.17 183.35 333.51 182.25 340.89 181.89 348.26 182.29 355.68 183.06 363.05 184.5 370.33 186.58 377.63 188.86 384.8 191.65 391.81 194.86" stroke-dasharray="0 0" transform="rotate(51.48648648648649, 400, 400)" opacity="0.61"></path><path d="M385.81 203.91C392.41 207 398.72 210.28 404.73 213.66 410.73 216.78 416.44 219.89 421.86 222.95 429.89 226.89 444.88 233.55 452.06 236.3 459.43 238.41 474.87 242.18 483.33 244.08 489.5 245.21 496.04 246.56 503 248.14 510.46 249.67 518.36 251.5 526.68 253.66 535.38 255.85 544.38 258.41 553.55 261.33 562.77 264.33 571.85 267.71 580.57 271.46 588.81 275.32 596.27 279.53 602.68 284.07 610.05 291.18 615.18 306.96 612.61 315.49 609.26 321.3 604.59 327.29 598.88 333.43 592.9 339.59 586.57 345.88 580.29 352.26 574.88 358.65 570.27 365.11 566.8 371.63 565.05 378.15 564.78 384.57 565.93 390.88 568.71 397.2 572.53 403.42 577.07 409.55 582.42 415.7 587.8 421.8 592.85 427.84 597.69 433.95 601.57 440.05 604.28 446.15 606.04 452.38 606.32 458.67 605.11 465.04 602.72 471.58 598.9 478.25 593.8 485.07 587.74 492.1 580.7 499.31 572.88 506.69 564.55 514.29 555.79 522.06 546.81 529.97 537.73 538.03 528.68 546.18 519.78 554.34 511.07 562.52 502.64 570.6 494.52 578.46 486.69 586.13 479.19 593.43 471.99 600.2 465.08 606.54 458.4 612.17 451.91 616.96 445.64 621.08 439.46 624.21 433.35 626.25 427.36 627.48 421.35 627.56 415.3 626.46 409.29 624.59 403.19 621.62 396.97 617.62 390.76 613.09 384.42 607.74 377.95 601.72 371.47 595.6 365.02 589.27 358.63 582.92 352.25 576.93 345.95 571.18 339.77 565.79 333.64 561.08 327.66 556.86 321.89 553.18 313.47 549.09 298.19 544.41 291.47 543.47 280.12 543.84 266.81 544.16 263.38 543.25 256.31 538.83 243.91 526.37 238.68 520.21 234.67 515.79 230.47 510.93 226.14 505.69 221.49 500.32 216.85 494.62 212.32 488.62 207.77 482.54 203.55 476.22 199.82 469.68 196.42 463.11 193.72 456.36 191.84 449.46 190.56 442.55 190.21 435.51 190.83 428.36 192.08 421.21 194.18 414.12 197.01 407.11 200.17 400.09 203.82 393.14 207.81 386.25 211.75 379.34 215.77 372.48 219.78 365.67 223.41 358.81 226.87 351.98 230.12 345.18 232.86 338.31 235.37 331.45 237.68 324.59 239.53 317.65 241.27 310.71 242.97 303.78 244.37 296.78 245.88 289.78 247.57 282.82 249.17 275.81 251.08 268.87 253.34 262.03 255.7 255.21 258.49 248.54 261.72 242.07 265.15 235.72 269.04 229.65 273.37 223.92 277.92 218.42 282.89 213.34 288.22 208.76 293.75 204.5 299.59 200.82 305.69 197.77 311.93 195.11 318.37 193.12 324.95 191.85 331.63 190.97 338.39 190.8 345.19 191.33 352.03 192.19 358.88 193.68 365.66 195.77 372.47 198.03 379.19 200.76 385.8 203.9" stroke-dasharray="0 0" transform="rotate(54.91891891891892, 400, 400)" opacity="0.59"></path><path d="M381.15 212.95C387.38 215.97 393.4 219.17 399.18 222.47 404.98 225.55 410.56 228.63 415.94 231.67 423.97 235.66 439.48 242.57 447.17 245.49 452.46 247.05 457.83 248.57 463.33 250.07 469.11 251.29 475.13 252.57 481.42 253.95 488.08 255.13 495.08 256.49 502.44 258.04 510.16 259.51 518.23 261.24 526.57 263.24 535.14 265.24 543.84 267.56 552.53 270.21 561.11 272.9 569.41 275.93 577.2 279.3 584.43 282.75 590.81 286.53 596.12 290.62 601.93 297.03 604.69 311.35 601.53 319.16 598.04 324.49 593.44 330.02 587.98 335.72 582.36 341.44 576.48 347.31 570.7 353.31 565.73 359.32 561.49 365.44 558.25 371.67 556.57 377.89 556.2 384.07 557.09 390.19 559.46 396.32 562.78 402.41 566.79 408.45 571.6 414.52 576.52 420.58 581.24 426.63 585.88 432.74 589.78 438.89 592.7 445.07 594.88 451.36 595.79 457.74 595.38 464.2 593.96 470.82 591.22 477.56 587.25 484.44 582.39 491.49 576.51 498.68 569.81 506.02 562.52 513.51 554.69 521.12 546.5 528.82 538.09 536.6 529.55 544.4 521.01 552.15 512.53 559.86 504.19 567.4 496.06 574.68 488.13 581.74 480.44 588.37 473.01 594.47 465.81 600.14 458.83 605.11 452.06 609.27 445.48 612.81 439.04 615.42 432.72 617.02 426.52 617.89 420.37 617.71 414.26 616.46 408.19 614.53 402.12 611.61 396.02 607.75 389.94 603.43 383.81 598.37 377.63 592.68 371.46 586.9 365.38 580.91 359.43 574.88 353.49 569.15 347.68 563.61 342.05 558.36 336.45 553.7 331.04 549.45 325.87 545.66 318.33 541.24 304.79 535.55 298.88 534.01 282.59 532.89 269.34 530.26 265.73 528.04 261.57 525.2 251.97 516.93 246.41 511.53 242.23 507.65 237.91 503.35 233.5 498.67 228.84 493.88 224.24 488.74 219.79 483.28 215.37 477.76 211.31 471.97 207.73 465.92 204.51 459.85 201.96 453.56 200.22 447.08 199.03 440.59 198.74 433.94 199.38 427.12 200.6 420.31 202.64 413.51 205.38 406.74 208.46 399.97 212.02 393.22 215.92 386.5 219.81 379.77 223.82 373.04 227.85 366.35 231.56 359.62 235.14 352.89 238.54 346.17 241.48 339.41 244.2 332.64 246.73 325.88 248.8 319.07 250.74 312.25 252.6 305.45 254.13 298.61 255.71 291.8 257.39 285.04 258.92 278.28 260.68 271.6 262.7 265.04 264.75 258.54 267.15 252.22 269.93 246.12 272.82 240.16 276.13 234.49 279.85 229.19 283.72 224.11 288 219.46 292.62 215.3 297.41 211.45 302.53 208.16 307.92 205.47 313.43 203.15 319.17 201.46 325.09 200.44 331.1 199.78 337.23 199.78 343.44 200.42 349.7 201.36 356 202.89 362.3 204.97 368.62 207.2 374.91 209.88 381.14 212.94" stroke-dasharray="0 0" transform="rotate(58.351351351351354, 400, 400)" opacity="0.56"></path><path d="M378.3 221.99C384.19 224.93 389.94 228.04 395.56 231.27 401.18 234.29 406.68 237.33 412.07 240.35 417.49 243.05 422.84 245.68 428.15 248.23 433.54 250.42 438.96 252.53 444.42 254.56 455.86 257.61 467.98 260.6 481.03 263.74 495.22 266.09 510.54 269.11 526.66 272.98 543.07 276.69 559 281.59 573.12 287.68 584.8 293.93 592.46 301.43 595.01 310.04 593.94 316.71 584.54 331.31 577.12 339.16 571.88 344.47 566.45 349.96 561.15 355.61 556.6 361.26 552.71 367.06 549.71 373 548.09 378.94 547.63 384.89 548.28 390.82 550.27 396.76 553.12 402.7 556.63 408.64 560.91 414.62 565.36 420.62 569.7 426.64 574.1 432.72 577.91 438.86 580.94 445.07 585.17 457.74 584.77 470.86 579.77 484.41 571.48 498.46 559.61 512.98 545.44 527.69 530.03 542.53 513.97 557.05 498.12 570.58 482.61 583.11 467.82 593.63 453.9 601.32 447.14 604.32 440.54 606.45 434.1 607.65 427.76 608.2 421.52 607.79 415.38 606.42 409.29 604.46 403.26 601.6 397.27 597.89 391.3 593.78 385.36 589 379.45 583.64 373.54 578.19 367.8 572.54 362.24 566.83 356.68 561.37 351.32 556.05 346.16 550.96 338.56 544.25 324.65 533.58 318.4 529.68 310.37 526.5 303.5 524.36 297.81 522.79 289.45 522.12 274.12 517.06 265.21 510.85 257.56 505.79 249.29 499.03 240.67 490.71 236.04 486.43 231.51 481.8 227.17 476.84 222.9 471.83 219.02 466.53 215.63 460.96 212.58 455.36 210.21 449.52 208.59 443.45 207.51 437.38 207.28 431.11 207.92 424.65 209.12 418.18 211.09 411.69 213.74 405.19 216.71 398.69 220.16 392.17 223.97 385.66 227.79 379.13 231.76 372.6 235.78 366.06 239.54 359.5 243.22 352.93 246.75 346.36 252.52 333.14 257.57 319.87 262.05 306.7 265.17 293.49 268.48 280.48 272.39 268 276.07 255.83 281.03 244.55 287.35 234.59 294.09 225.56 302.28 218.33 311.64 213.31 319.01 210.61 334.96 208.74 343.37 209.56 349.05 210.58 354.83 212.13 360.67 214.19 366.51 216.39 372.4 219 378.29 221.98" stroke-dasharray="0 0" transform="rotate(61.78378378378379, 400, 400)" opacity="0.54"></path><path d="M377.52 231.03C388.69 236.63 399.65 242.76 410.42 248.97 421.36 254.06 432.4 258.94 443.74 263.5 455.67 266.82 468.33 270.07 481.83 273.41 496.13 275.95 511.23 279.02 526.63 282.8 541.84 286.33 556.11 290.88 568.23 296.5 577.86 302.17 583.62 308.99 584.71 316.88 582.37 324.86 575.88 333.85 566.32 343.7 556.85 353.58 547.84 364.23 541.16 375.57 539.37 386.91 541.46 398.42 546.59 410.04 554.69 421.76 562.74 433.75 569.05 445.99 573.79 458.53 574.62 471.5 571.38 484.82 565.2 498.49 555.54 512.48 543.39 526.46 529.79 540.39 515.1 553.81 500.2 566.1 485.28 577.34 470.78 586.58 456.96 593.12 443.51 597.56 430.65 598.72 418.39 596.35 406.3 591.93 394.57 584.5 383.24 574.59 371.91 564.4 361.44 553.77 351.91 543.58 342.4 535.09 333.88 527.82 326.47 521.9 319.06 518.09 312.68 515.25 307.27 512.99 301.53 512 296.35 510.76 291.48 508.85 285.59 507.22 279.43 504.34 272.81 500.05 264.8 495.54 256.3 489.5 247.64 482 238.49 474.24 230.17 465.16 223.5 454.93 218.21 444.59 215.71 433.25 216.47 421.04 219.27 408.83 224.71 396.38 231.95 383.83 239.36 371.28 247.16 358.58 254.73 345.86 260.86 333.1 266.35 320.29 271.26 307.64 274.79 295.03 278.33 282.71 282.23 270.97 285.69 259.64 290.15 249.23 295.74 240.17 301.53 232.02 308.63 225.61 316.87 221.3 325.41 218.22 334.92 217.35 345.15 218.76 355.48 221.09 366.33 225.26 377.51 231.03" stroke-dasharray="0 0" transform="rotate(65.21621621621621, 400, 400)" opacity="0.51"></path><path d="M378.88 240.07C389.5 245.5 400.21 251.45 410.98 257.54 421.91 262.64 433.17 267.6 444.86 272.31 457.02 275.87 469.89 279.37 483.43 282.92 497.43 285.67 511.87 288.86 526.18 292.63 539.93 296.06 552.38 300.38 562.48 305.64 570.17 310.86 574.21 317.13 574.06 324.41 571.07 331.73 564.59 340.03 555.59 349.21 546.92 358.41 538.74 368.45 532.62 379.25 530.81 390.06 532.39 401.17 536.68 412.49 543.78 423.89 551.07 435.64 557.09 447.67 562.11 459.93 563.88 472.58 562.12 485.49 557.85 498.62 550.28 511.91 540.17 525.02 528.52 537.93 515.48 550.18 501.84 561.21 487.92 571.19 474.08 579.19 460.71 584.65 447.53 588.24 434.87 588.83 422.84 586.24 410.94 581.9 399.51 574.85 388.63 565.55 377.74 556 367.85 545.97 358.96 536.21 350.03 527.91 342.11 520.57 335.2 514.36 328.18 510.02 322.04 506.55 316.67 503.65 310.84 501.99 305.38 500.21 300.05 497.95 293.7 496.1 287.04 493.24 279.95 489.19 271.66 485.06 263.04 479.57 254.44 472.74 245.56 465.74 237.63 457.46 231.37 448.03 226.47 438.51 224.21 427.96 225.01 416.47 227.71 404.99 232.92 393.17 239.88 381.18 247.1 369.19 254.84 357.02 262.48 344.82 268.91 332.63 274.8 320.41 280.13 308.39 284.14 296.5 288.03 284.95 292.08 274.05 295.52 263.6 299.71 254.12 304.81 245.96 309.92 238.69 316.17 233.08 323.5 229.43 331 226.9 339.49 226.41 348.81 228 358.19 230.4 368.25 234.49 378.87 240.07" stroke-dasharray="0 0" transform="rotate(68.64864864864865, 400, 400)" opacity="0.49"></path><path d="M382.27 249.11C392.38 254.35 402.8 260.12 413.49 266.06 424.32 271.14 435.61 276.14 447.38 280.96 459.48 284.75 472.2 288.48 485.35 292.24 498.68 295.23 512.11 298.56 525.03 302.38 537.14 305.81 547.71 309.99 555.84 314.98 561.73 319.87 564.27 325.71 563.11 332.48 559.67 339.25 553.31 346.96 544.92 355.55 537.04 364.14 529.67 373.6 524.08 383.89 522.28 394.17 523.39 404.84 526.89 415.79 533.03 426.81 539.5 438.21 545.12 449.89 550.2 461.73 552.63 473.9 552.07 486.24 549.45 498.67 543.79 511.12 535.65 523.25 526 535.07 514.74 546.12 502.61 555.89 489.99 564.63 477.15 571.47 464.53 575.94 451.95 578.75 439.75 578.85 428.12 576.11 416.58 571.87 405.54 565.21 395.1 556.51 384.66 547.59 375.24 538.16 366.83 528.86 358.35 520.79 350.81 513.46 344.18 507.05 337.36 502.28 331.26 498.26 325.73 494.78 319.68 492.47 313.83 490.15 307.99 487.51 301.2 485.35 294.08 482.39 286.61 478.45 278.16 474.54 269.53 469.45 261.08 463.16 252.56 456.76 245.06 449.18 239.24 440.47 234.73 431.71 232.72 421.9 233.56 411.15 236.15 400.4 241.11 389.25 247.75 377.89 254.75 366.55 262.35 355 270 343.42 276.65 331.89 282.88 320.38 288.62 309.1 293.13 298.01 297.42 287.31 301.74 277.31 305.36 267.79 309.49 259.24 314.33 252 319.02 245.58 324.67 240.74 331.31 237.73 337.99 235.71 345.66 235.55 354.2 237.31 362.77 239.74 372.15 243.74 382.27 249.11" stroke-dasharray="0 0" transform="rotate(72.08108108108108, 400, 400)" opacity="0.46"></path><path d="M387.34 258.15C396.98 263.19 407.08 268.75 417.55 274.53 428.14 279.56 439.25 284.57 450.8 289.46 462.54 293.43 474.75 297.37 487.16 301.32 499.5 304.55 511.63 308.06 522.96 311.96 533.33 315.44 542.02 319.56 548.31 324.39 552.59 329.06 553.86 334.56 551.91 340.93 548.19 347.24 542.07 354.45 534.34 362.52 527.24 370.57 520.62 379.49 515.53 389.26 513.76 399.02 514.46 409.22 517.24 419.72 522.44 430.29 528.1 441.23 533.2 452.42 538.15 463.71 540.99 475.27 541.34 486.89 540.07 498.5 536.09 510 529.78 521.06 522.06 531.74 512.65 541.57 502.15 550.11 491.05 557.66 479.47 563.42 467.85 566.99 456.15 569.11 444.65 568.79 433.6 565.95 422.59 561.84 412.03 555.58 402.04 547.47 392.05 539.17 383.04 530.33 374.97 521.53 366.81 513.72 359.5 506.48 352.96 499.97 346.18 494.86 339.95 490.39 334.15 486.41 327.79 483.51 321.52 480.66 315.19 477.62 308 475.09 300.53 471.95 292.79 468.03 284.3 464.21 275.77 459.38 267.58 453.51 259.49 447.59 252.47 440.58 247.1 432.54 243 424.44 241.24 415.35 242.1 405.32 244.58 395.29 249.27 384.85 255.58 374.18 262.3 363.54 269.7 352.7 277.28 341.83 284.08 331.06 290.58 320.33 296.67 309.89 301.64 299.67 306.38 289.89 311.04 280.84 314.96 272.26 319.21 264.66 323.99 258.31 328.49 252.72 333.78 248.61 339.94 246.19 346.04 244.64 353.08 244.78 361 246.66 368.91 249.11 377.7 253 387.34 258.15" stroke-dasharray="0 0" transform="rotate(75.51351351351352, 400, 400)" opacity="0.44"></path><path d="M393.63 267.2C402.81 272.02 412.5 277.36 422.62 282.94 432.81 287.89 443.5 292.88 454.54 297.8 465.65 301.91 477.04 306.02 488.39 310.15 499.5 313.61 510.14 317.29 519.78 321.3 528.4 324.89 535.3 329.01 539.92 333.73 542.8 338.25 543.02 343.52 540.51 349.55 536.68 355.51 530.89 362.29 523.83 369.89 517.49 377.46 511.59 385.87 506.99 395.11 505.25 404.36 505.59 414.04 507.71 424.03 512.04 434.06 516.86 444.45 521.38 455.03 526.03 465.67 529.05 476.48 530.04 487.25 529.83 497.94 527.26 508.42 522.56 518.36 516.64 527.87 509.02 536.5 500.19 543.85 490.71 550.29 480.55 555.05 470.12 557.81 459.51 559.32 448.92 558.66 438.6 555.77 428.29 551.82 418.3 545.95 408.78 538.43 399.27 530.74 390.62 522.49 382.8 514.19 374.89 506.71 367.68 499.61 361.1 493.09 354.26 487.74 347.83 482.92 341.68 478.53 335 475.11 328.34 471.78 321.58 468.34 314.09 465.43 306.38 462.06 298.51 458.07 290.11 454.24 281.81 449.58 273.98 444.02 266.37 438.47 259.87 431.94 254.98 424.48 251.29 416.98 249.76 408.55 250.64 399.24 253 389.94 257.41 380.23 263.36 370.29 269.76 360.4 276.91 350.33 284.34 340.27 291.18 330.31 297.86 320.45 304.22 310.91 309.62 301.61 314.79 292.79 319.83 284.7 324.12 277.07 328.62 270.4 333.49 264.92 337.99 260.12 343.13 256.7 349 254.82 354.74 253.69 361.33 254.09 368.77 256.06 376.16 258.51 384.45 262.27 393.63 267.2" stroke-dasharray="0 0" transform="rotate(78.94594594594594, 400, 400)" opacity="0.41"></path><path d="M400.52 276.24C409.23 280.83 418.45 285.93 428.05 291.3 437.69 296.13 447.74 301.06 458.01 305.97 468.25 310.18 478.57 314.42 488.65 318.68 498.37 322.34 507.43 326.2 515.35 330.31 524.93 336.1 532.13 349.84 528.97 358.15 525.16 363.83 519.78 370.25 513.42 377.42 507.81 384.56 502.59 392.48 498.44 401.2 496.75 409.91 496.79 419.04 498.32 428.45 501.82 437.88 505.83 447.61 509.71 457.49 513.93 467.36 516.92 477.33 518.3 487.17 518.85 496.87 517.4 506.27 514.08 515.07 509.74 523.43 503.77 530.88 496.55 537.1 488.7 542.51 480.02 546.36 470.88 548.41 461.52 549.4 451.97 548.47 442.5 545.57 433.01 541.8 423.69 536.34 414.69 529.39 405.68 522.29 397.38 514.64 389.76 506.87 382.05 499.75 374.89 492.86 368.21 486.4 361.28 480.92 354.62 475.85 348.13 471.14 341.18 467.28 334.19 463.53 327.12 459.74 319.46 456.45 311.66 452.82 303.82 448.72 295.63 444.83 287.68 440.25 280.29 434.93 273.23 429.64 267.28 423.52 262.88 416.57 259.59 409.61 258.28 401.8 259.19 393.2 261.42 384.6 265.53 375.64 271.1 366.48 277.15 357.37 283.98 348.12 291.18 338.92 297.97 329.83 304.72 320.88 311.27 312.29 317.01 303.94 322.55 296.08 327.95 288.96 332.65 282.28 337.46 276.5 342.51 271.85 347.17 267.8 352.31 265.01 358.04 263.62 363.6 262.86 369.89 263.49 376.96 265.52 383.97 267.94 391.81 271.55 400.52 276.24" stroke-dasharray="0 0" transform="rotate(82.37837837837839, 400, 400)" opacity="0.38"></path><path d="M407.37 285.28C415.59 289.63 424.23 294.47 433.17 299.6 442.13 304.29 451.35 309.11 460.65 313.96 469.85 318.23 478.94 322.54 487.61 326.9 495.87 330.73 503.34 334.73 509.63 338.94 516.93 344.88 520.96 358.51 517.34 366.54 513.67 371.98 508.77 378.08 503.1 384.86 498.19 391.6 493.61 399.05 489.9 407.22 488.27 415.4 488.04 423.93 489.05 432.69 491.79 441.47 495.02 450.47 498.24 459.55 501.94 468.6 504.73 477.65 506.27 486.49 507.3 495.17 506.68 503.46 504.45 511.12 501.43 518.36 496.92 524.7 491.17 529.88 484.86 534.33 477.64 537.38 469.81 538.8 461.75 539.35 453.33 538.21 444.8 535.35 436.22 531.79 427.64 526.73 419.19 520.35 410.74 513.84 402.81 506.78 395.38 499.54 387.87 492.81 380.75 486.21 373.97 479.89 366.96 474.37 360.12 469.15 353.38 464.23 346.25 460.03 339.06 455.94 331.82 451.84 324.15 448.22 316.41 444.35 308.75 440.12 300.92 436.12 293.41 431.58 286.55 426.44 280.08 421.35 274.71 415.57 270.8 409.09 267.9 402.6 266.82 395.38 267.73 387.47 269.83 379.56 273.64 371.35 278.8 363 284.46 354.69 290.92 346.29 297.82 337.98 304.46 329.79 311.18 321.78 317.79 314.15 323.76 306.75 329.59 299.86 335.29 293.69 340.38 287.91 345.51 282.99 350.78 279.11 358.29 274.65 375.16 272.56 384.99 275.02 391.7 277.4 399.15 280.84 407.37 285.28" stroke-dasharray="0 0" transform="rotate(85.8108108108108, 400, 400)" opacity="0.36"></path><path d="M413.51 294.32C421.2 298.41 429.2 302.99 437.36 307.85 445.52 312.35 453.79 317.03 461.98 321.78 470.03 326.04 477.81 330.38 485.04 334.78 491.86 338.73 497.82 342.83 502.61 347.11 507.93 353.18 509.48 366.74 505.66 374.51 502.24 379.76 497.85 385.57 492.88 391.97 488.63 398.33 484.65 405.32 481.35 412.93 479.8 420.54 479.35 428.44 479.91 436.51 481.96 444.58 484.46 452.79 487.01 461.01 490.12 469.18 492.58 477.27 494.1 485.09 495.35 492.72 495.29 499.93 493.87 506.49 491.89 512.65 488.58 517.96 484.11 522.17 479.19 525.77 473.32 528.11 466.75 529.01 459.96 529.19 452.68 527.91 445.12 525.13 437.5 521.79 429.7 517.14 421.86 511.31 414.01 505.37 406.48 498.9 399.28 492.21 392.02 485.91 384.99 479.64 378.17 473.54 371.17 468.08 364.24 462.82 357.36 457.78 350.2 453.35 342.97 449.01 335.73 444.68 328.22 440.78 320.71 436.7 313.38 432.37 306.02 428.26 299.06 423.73 292.79 418.74 286.95 413.82 282.17 408.33 278.75 402.27 276.24 396.22 275.36 389.56 276.28 382.31 278.23 375.07 281.73 367.61 286.48 360.07 291.72 352.57 297.75 345.04 304.27 337.64 310.67 330.35 317.24 323.28 323.79 316.6 329.88 310.14 335.88 304.2 341.77 298.93 347.17 294.01 352.58 289.89 358.06 286.73 365.87 283.16 382.78 282.05 392.29 284.58 398.74 286.88 405.81 290.15 413.51 294.32" stroke-dasharray="0 0" transform="rotate(89.24324324324324, 400, 400)" opacity="0.33"></path><path d="M418.36 303.36C425.49 307.18 432.77 311.47 440.08 316.05 447.36 320.33 454.61 324.82 461.63 329.42 468.49 333.62 474.96 337.93 480.81 342.31 488.56 348.39 498.04 360.93 499.05 367.62 497.79 374.36 488.99 389.72 482.77 398.5 479.14 404.49 475.72 411 472.8 418.04 471.34 425.07 470.72 432.31 470.89 439.64 472.33 446.97 474.15 454.36 476.06 461.69 478.55 468.95 480.58 476.06 481.92 482.85 483.31 492.55 480.15 508.47 475.55 514 469.45 517.71 452.99 518.25 443.28 514.9 436.62 511.8 429.64 507.55 422.44 502.27 415.24 496.89 408.16 491.01 401.26 484.87 394.31 479.03 387.46 473.14 380.72 467.33 373.84 462.01 366.98 456.81 360.13 451.77 353.09 447.22 346.01 442.72 338.96 438.26 331.76 434.16 324.65 429.93 317.79 425.54 311 421.34 304.67 416.84 299.04 411.98 293.86 407.21 289.67 402 286.73 396.34 284.6 390.69 283.92 384.56 284.82 377.97 286.62 371.38 289.82 364.65 294.14 357.91 298.92 351.21 304.49 344.54 310.57 338.04 316.63 331.64 322.93 325.49 329.3 319.75 335.36 314.19 341.39 309.14 347.37 304.73 352.95 300.61 358.54 297.23 364.16 294.71 372.22 291.92 389.14 291.64 398.34 294.19 404.55 296.4 411.22 299.47 418.36 303.36" stroke-dasharray="0 0" transform="rotate(92.67567567567568, 400, 400)" opacity="0.31"></path><path d="M421.45 312.4C427.98 315.94 434.5 319.92 440.92 324.19 447.3 328.23 453.5 332.49 459.36 336.88 470.64 344.71 479.66 353.11 484.98 361.89 488.49 369.7 487.59 378.55 482.42 388.52 479.7 393.37 476.4 398.62 472.76 404.25 469.72 409.85 466.81 415.88 464.26 422.31 462.89 428.75 462.15 435.31 462 441.88 462.91 448.44 464.11 455 465.41 461.42 469.57 474.06 471.74 485.68 470.78 495.05 466.26 505.71 447.61 507.88 439.32 504.66 433.57 501.81 427.39 497.98 420.87 493.22 414.35 488.4 407.8 483.09 401.28 477.52 394.74 472.17 388.19 466.7 381.67 461.24 368.39 451.48 354.87 441.87 341.62 432.56 328.19 424.45 315.6 415.76 305.35 406.29 299.04 399.2 292.73 383.39 293.37 374.62 295.01 368.67 297.89 362.66 301.78 356.71 306.09 350.78 311.15 344.94 316.73 339.32 327.94 328.32 340.03 318.58 352.07 311.1 363.01 304.54 374.14 300.8 385.54 300.53 391.05 300.78 396.78 301.89 402.75 303.84 408.68 305.94 414.92 308.81 421.45 312.4" stroke-dasharray="0 0" transform="rotate(96.10810810810811, 400, 400)" opacity="0.28"></path><path d="M422.49 321.44C434.28 327.84 445.42 335.68 455.11 344.17 464.3 351.72 471.15 359.89 474.67 368.42 476.95 376.18 475.62 384.8 470.94 394.26 466.54 403.44 460.98 413.92 455.72 425.57 454.16 437.22 454.2 448.98 455.11 460.1 458.07 470.97 459.63 480.68 458.81 488.24 457.69 494.84 453.44 498.55 446.33 498.63 438.81 497.38 428.96 492.51 417.31 484.18 405.66 475.63 393.45 465.59 381.2 455.25 368.81 446 356.14 436.68 343.88 427.57 331.75 419.4 320.59 410.81 311.74 401.74 304.5 392.94 300.86 383.13 301.91 372.44 305.47 361.76 312.93 351.24 322.79 341.58 333.08 332.18 344.44 324.08 355.93 318.07 366.73 312.77 377.72 309.97 388.75 310.17 399.41 311.1 410.71 314.87 422.49 321.44" stroke-dasharray="0 0" transform="rotate(99.54054054054053, 400, 400)" opacity="0.26"></path><path d="M421.39 330.48C431.84 336.29 441.23 343.45 448.97 351.29 456.33 358.43 461.42 366.22 463.64 374.35 465.09 381.9 463.64 390.15 459.63 399.01 456.09 407.66 451.61 417.27 447.17 427.66 445.63 438.05 445.1 448.25 445.16 457.64 447.42 470.8 444.32 487.28 436.76 488.23 430.66 486.87 422.32 482.48 412.1 475.14 401.87 467.63 390.84 458.7 379.61 449.35 368.37 440.76 356.91 431.93 345.95 423.22 335.29 415.22 325.7 406.91 318.27 398.34 312.25 390.01 309.37 381 310.46 371.52 313.59 362.04 320.1 352.98 328.78 344.87 338 336.97 348.38 330.35 359.05 325.63 369.36 321.42 379.88 319.41 390.29 319.97 400.47 321.03 410.94 324.54 421.39 330.48" stroke-dasharray="0 0" transform="rotate(102.97297297297298, 400, 400)" opacity="0.23"></path><path d="M418.24 339.52C427.32 344.71 435.1 351.14 441.18 358.23 447 364.85 450.76 372.1 452.12 379.68 453.08 386.84 451.78 394.58 448.52 402.73 445.81 410.72 442.29 419.38 438.63 428.48 437.13 437.58 436.19 446.26 435.58 454.03 434.71 471.15 418.05 474.4 405.73 466.1 396.91 459.61 387.23 451.81 377.31 443.51 367.45 435.72 357.45 427.58 348.01 419.48 338.97 411.88 330.98 404.03 324.95 396.1 320.11 388.35 317.9 380.21 319 371.91 321.71 363.6 327.27 355.91 334.74 349.23 342.77 342.68 351.98 337.38 361.57 333.76 371.04 330.5 380.75 329.13 390.29 329.91 399.71 331.04 409.16 334.23 418.24 339.52" stroke-dasharray="0 0" transform="rotate(106.4054054054054, 400, 400)" opacity="0.20"></path><path d="M413.35 348.57C421.04 353.09 427.37 358.74 432.11 365.02 436.7 370.98 439.5 377.55 440.39 384.42 441.12 391.01 440.12 398.07 437.64 405.37 435.7 412.58 433.05 420.21 430.08 428 428.69 435.8 427.48 443.01 426.38 449.28 423.99 462.65 409.18 464.14 398.81 457.06 391.37 451.56 383.16 444.9 374.75 437.71 366.43 430.85 358.07 423.56 350.29 416.25 342.92 409.27 336.52 402.1 331.83 394.94 328.07 387.92 326.47 380.71 327.55 373.57 329.83 366.43 334.46 360.03 340.7 354.62 347.47 349.3 355.34 345.14 363.65 342.44 371.99 339.97 380.6 339.09 389.01 340 397.39 341.11 405.65 343.96 413.35 348.57" stroke-dasharray="0 0" transform="rotate(109.83783783783784, 400, 400)" opacity="0.18"></path><path d="M407.18 357.61C419.82 365.16 427.25 376.43 428.69 388.6 430.13 400.09 427.15 413.28 421.54 426.24 420.16 439.2 418.01 449.35 414.15 454.46 411.51 458.63 404.19 456.76 392 448.02 379.81 439.01 365.46 426.35 353.01 413.47 341.91 401.39 334.99 388.4 336.09 376.45 340.62 364.49 351.91 355.68 365.49 351.63 379.52 348.08 394.54 349.83 407.18 357.61" stroke-dasharray="0 0" transform="rotate(113.27027027027027, 400, 400)" opacity="0.15"></path><path d="M400.32 366.65C410.27 372.84 416.02 382.15 417.29 392.24 418.83 401.99 417.1 412.96 412.99 423.28 410.23 437.4 398.71 446.78 385.96 438.98 376.35 431.85 365.45 421.63 356.34 411.04 348.23 400.87 343.43 390.02 344.64 380.4 348.1 370.77 356.75 364.07 367.31 361.27 378.39 358.71 390.37 360.31 400.32 366.65" stroke-dasharray="0 0" transform="rotate(116.70270270270271, 400, 400)" opacity="0.13"></path><path d="M393.44 375.69C400.78 380.44 405.14 387.61 406.42 395.42 407.99 403.07 407.24 411.56 404.45 419.25 401.79 429.62 390.99 435.81 381.26 429.94 374.13 424.66 366.53 416.95 360.48 408.86 355.03 400.95 352.03 392.53 353.18 385.25 355.64 377.97 361.76 373.13 369.34 371.28 377.32 369.52 386.1 370.86 393.44 375.69" stroke-dasharray="0 0" transform="rotate(120.13513513513513, 400, 400)" opacity="0.10"></path><path d="M387.18 384.73C396.81 391.11 399.85 404.16 395.9 414.34 394.53 424.52 387.78 427.66 378.35 420.9 368.91 413.96 360.46 400.56 361.72 390.77 365.35 380.97 377.53 378.19 387.18 384.73" stroke-dasharray="0 0" transform="rotate(123.56756756756758, 400, 400)" opacity="0.08"></path></g></svg>